<svg xmlns="http://www.w3.org/2000/svg" width="32" height="32" fill="none"><path fill="#A4A4A4" fill-rule="evenodd" d="M2.47 4.91A6.33 6.33 0 0 1 8 1.67h12a1 1 0 0 1 1 1V16a3.67 3.67 0 0 1-3.67 3.67H16a1 1 0 1 1 0-2h1.33c.92 0 1.67-.76 1.67-1.67V3.67H8c-1.62 0-3.04.9-3.78 2.22a1 1 0 1 1-1.75-.98Z" clip-rule="evenodd"/><path fill="#A4A4A4" fill-rule="evenodd" d="M19 6.67a1 1 0 0 1 1-1h2.45c1.33 0 2.53.71 3.19 1.84l2.28 4a1 1 0 0 1-.87 1.49h-1.72a.34.34 0 0 0-.33.33v4c0 .18.15.34.33.34h4a1 1 0 0 1 1 1v4a5 5 0 0 1-5 5H24a1 1 0 0 1-1-1c0-.92-.75-1.67-1.67-1.67-.91 0-1.66.75-1.66 1.67a1 1 0 0 1-1 1h-5.34a1 1 0 0 1-1-1c0-.92-.75-1.67-1.66-1.67-.92 0-1.67.75-1.67 1.67a1 1 0 0 1-1 1H6.67a5 5 0 0 1-5-5 1 1 0 1 1 2 0 3 3 0 0 0 3 3h.47a3.68 3.68 0 0 1 7.05 0h3.62a3.68 3.68 0 0 1 7.05 0h.47a3 3 0 0 0 3-3v-3h-3A2.34 2.34 0 0 1 23 17.33v-4A2.34 2.34 0 0 1 25.33 11l-1.42-2.48c-.3-.53-.86-.85-1.46-.85H21V16a3.67 3.67 0 0 1-3.67 3.67H16a1 1 0 1 1 0-2h1.33c.92 0 1.67-.76 1.67-1.67V6.67Z" clip-rule="evenodd"/><path fill="#A4A4A4" fill-rule="evenodd" d="M10.67 25a1.67 1.67 0 1 0 0 3.33 1.67 1.67 0 0 0 0-3.33ZM7 26.67a3.67 3.67 0 1 1 7.33 0 3.67 3.67 0 0 1-7.33 0ZM21.33 25a1.67 1.67 0 1 0 0 3.33 1.67 1.67 0 0 0 0-3.33Zm-3.66 1.67a3.67 3.67 0 1 1 7.33 0 3.67 3.67 0 0 1-7.33 0ZM25.33 13a.34.34 0 0 0-.33.33v4c0 .18.15.34.33.34h3v-1.4L26.47 13h-1.14Zm-2.33.33A2.34 2.34 0 0 1 25.33 11h1.72c.36 0 .7.2.87.5l2.28 4a1 1 0 0 1 .13.5v2.67a1 1 0 0 1-1 1h-4A2.34 2.34 0 0 1 23 17.33v-4ZM1.67 10.67a1 1 0 0 1 1-1h8a1 1 0 1 1 0 2h-8a1 1 0 0 1-1-1ZM1.67 14.67a1 1 0 0 1 1-1H8a1 1 0 1 1 0 2H2.67a1 1 0 0 1-1-1ZM1.67 18.67a1 1 0 0 1 1-1h2.66a1 1 0 1 1 0 2H2.67a1 1 0 0 1-1-1Z" clip-rule="evenodd"/></svg>