<svg aria-hidden="true" style="position: absolute; width: 0; height: 0; overflow: hidden;" version="1.1" xmlns="http://www.w3.org/2000/svg" xmlns:xlink="http://www.w3.org/1999/xlink">
    <defs>
        <symbol id="icon-logo" viewBox="0 0 32 32">
            <path d="M16.171 16.834c-0.434 8.389-7.497 15.051-16.171 15.166v-32c8.686 0.103 15.737 6.777 16.171 15.166 0.434-8.274 7.314-14.891 15.829-15.154v31.977c-8.514-0.263-15.394-6.88-15.829-15.154z"></path>
        </symbol>
    </defs>
    <symbol id="icon-google-play" viewBox="0 0 29 32">
        <path d="M0.629 31.36l14.827-15.36-14.816-15.371c-0.395 0.256-0.64 0.811-0.64 1.536v27.701c0 0.725 0.245 1.237 0.629 1.493zM15.989 15.573l4.416-4.587-17.984-10.24c-0.309-0.16-0.651-0.256-1.003-0.256l14.56 15.083zM15.989 16.416l-14.613 15.147c0.363 0.011 0.725-0.085 1.045-0.277l18.027-10.261-4.459-4.608zM26.912 14.699l-5.973-3.413-4.544 4.704 4.576 4.736 5.941-3.403c1.269-0.715 1.269-1.909 0-2.624z"></path>
    </symbol>
    <symbol id="icon-apple-store" viewBox="0 0 26 32">
        <path d="M22.008 17.346c0.044-2.499 1.366-4.679 3.339-5.92l0.030-0.017c-1.293-1.806-3.353-2.993-5.693-3.083l-0.014-0c-2.401-0.252-4.728 1.435-5.951 1.435-1.248 0-3.132-1.411-5.16-1.369-2.74 0.104-5.102 1.633-6.375 3.863l-0.020 0.038c-2.766 4.787-0.703 11.823 1.946 15.695 1.325 1.895 2.874 4.012 4.901 3.937 1.983-0.082 2.724-1.264 5.117-1.264 2.372 0 3.067 1.264 5.135 1.216 2.128-0.034 3.469-1.903 4.748-3.816 0.905-1.269 1.644-2.736 2.141-4.312l0.030-0.111c-2.501-1.057-4.171-3.574-4.174-6.289zM18.102 5.779c1.003-1.199 1.613-2.757 1.613-4.457 0-0.188-0.007-0.374-0.022-0.558l0.002 0.024c-1.838 0.198-3.441 1.072-4.58 2.365l-0.007 0.008c-1.023 1.169-1.647 2.71-1.647 4.396 0 0.144 0.005 0.287 0.014 0.429l-0.001-0.019c0.008 0 0.018 0 0.028 0 1.851 0 3.504-0.848 4.591-2.177l0.008-0.011z"></path>
    </symbol>
</svg>
