<svg aria-hidden="true" style="position: absolute; width: 0; height: 0; overflow: hidden;" version="1.1" xmlns="http://www.w3.org/2000/svg" xmlns:xlink="http://www.w3.org/1999/xlink">
    <defs>
        <symbol id="icon-logo" viewBox="0 0 32 32">
            <path d="M16.171 16.834c-0.434 8.389-7.497 15.051-16.171 15.166v-32c8.686 0.103 15.737 6.777 16.171 15.166 0.434-8.274 7.314-14.891 15.829-15.154v31.977c-8.514-0.263-15.394-6.88-15.829-15.154z"></path>
        </symbol>
    
        <symbol id="icon-google-play" viewBox="0 0 29 32">
            <path d="M0.629 31.36l14.827-15.36-14.816-15.371c-0.395 0.256-0.64 0.811-0.64 1.536v27.701c0 0.725 0.245 1.237 0.629 1.493zM15.989 15.573l4.416-4.587-17.984-10.24c-0.309-0.16-0.651-0.256-1.003-0.256l14.56 15.083zM15.989 16.416l-14.613 15.147c0.363 0.011 0.725-0.085 1.045-0.277l18.027-10.261-4.459-4.608zM26.912 14.699l-5.973-3.413-4.544 4.704 4.576 4.736 5.941-3.403c1.269-0.715 1.269-1.909 0-2.624z"></path>
        </symbol>
        <symbol id="icon-apple-store" viewBox="0 0 26 32">
            <path d="M22.008 17.346c0.044-2.499 1.366-4.679 3.339-5.92l0.030-0.017c-1.293-1.806-3.353-2.993-5.693-3.083l-0.014-0c-2.401-0.252-4.728 1.435-5.951 1.435-1.248 0-3.132-1.411-5.16-1.369-2.74 0.104-5.102 1.633-6.375 3.863l-0.020 0.038c-2.766 4.787-0.703 11.823 1.946 15.695 1.325 1.895 2.874 4.012 4.901 3.937 1.983-0.082 2.724-1.264 5.117-1.264 2.372 0 3.067 1.264 5.135 1.216 2.128-0.034 3.469-1.903 4.748-3.816 0.905-1.269 1.644-2.736 2.141-4.312l0.030-0.111c-2.501-1.057-4.171-3.574-4.174-6.289zM18.102 5.779c1.003-1.199 1.613-2.757 1.613-4.457 0-0.188-0.007-0.374-0.022-0.558l0.002 0.024c-1.838 0.198-3.441 1.072-4.58 2.365l-0.007 0.008c-1.023 1.169-1.647 2.71-1.647 4.396 0 0.144 0.005 0.287 0.014 0.429l-0.001-0.019c0.008 0 0.018 0 0.028 0 1.851 0 3.504-0.848 4.591-2.177l0.008-0.011z"></path>
        </symbol>
        <symbol id="icon-gretsch" viewBox="0 0 162 32">
            <path d="M42.791 2.761c0.036-0.22 0.032-0.255 0.045-0.28 1.273-2.458 1.273-2.458 4.141-2.458h92.013c-0.535 0.901-0.941 1.7-1.471 2.412-0.159 0.216-0.661 0.277-1.005 0.277-5.99 0.017-11.979 0.011-17.969 0.011-8.747 0-17.49 0.009-26.234-0.019-0.747-0.001-1.126 0.22-1.483 0.845-5.173 9.093-10.391 18.162-15.547 27.263-0.498 0.878-1.017 1.233-2.062 1.167-1.525-0.098-3.061-0.026-4.802-0.026l16.614-29.197c-14.167 0.004-28.168 0.004-42.24 0.004zM150.785 0.026l-9.146 14.833c1.594 0 2.988 0.033 4.38-0.031 0.244-0.012 0.526-0.398 0.693-0.667 2.715-4.39 5.429-8.782 8.1-13.196 0.417-0.691 0.853-1 1.721-0.962 1.756 0.077 3.52 0.024 5.471 0.024-0.25 0.429-0.434 0.76-0.631 1.083-6.123 10.062-12.25 20.124-18.36 30.195-0.296 0.488-0.619 0.679-1.207 0.668-1.825-0.036-3.649-0.013-5.691-0.013l8.655-14.566c-1.606 0-2.997-0.033-4.384 0.032-0.248 0.012-0.542 0.384-0.705 0.652-2.553 4.231-5.118 8.455-7.603 12.722-0.523 0.9-1.096 1.249-2.165 1.185-1.614-0.095-3.239-0.024-5.035-0.024 0.831-1.384 1.57-2.631 2.321-3.87 5.5-9.094 11.008-18.184 16.485-27.29 0.356-0.59 0.725-0.806 1.423-0.788 1.818 0.044 3.643 0.012 5.677 0.012zM38.267 0.044c-0.577 0.904-1.019 1.685-1.564 2.394-0.156 0.204-0.607 0.275-0.922 0.276-3.298 0.019-6.599 0.085-9.896-0.018-1.743-0.055-2.797 0.641-3.639 2.024-3.108 5.096-6.276 10.155-9.408 15.237-1.517 2.46-3.006 4.936-4.501 7.409-0.145 0.238-0.295 0.485-0.376 0.745-0.244 0.776 0.111 1.292 0.955 1.32 1.152 0.037 2.308 0.036 3.458-0.007 0.264-0.009 0.628-0.193 0.762-0.403 2.264-3.538 4.499-7.090 6.737-10.643 0.026-0.041 0.004-0.115 0.004-0.256h-2.963c0.486-0.862 0.868-1.579 1.301-2.265 0.089-0.141 0.383-0.23 0.581-0.23 3.010-0.005 6.020 0.008 9.031 0.019 0.053 0 0.107 0.056 0.255 0.136-0.634 1.051-1.263 2.103-1.9 3.151-2.498 4.117-5.010 8.23-7.488 12.361-0.313 0.523-0.661 0.708-1.286 0.704-4.645-0.026-9.289-0.013-13.932-0.013-1.944 0-3.026-1.31-2.541-3.164 0.168-0.646 0.476-1.276 0.824-1.856 4.635-7.729 9.307-15.435 13.931-23.168 1.403-2.347 3.538-3.644 6.239-3.713 5.375-0.139 10.756-0.041 16.339-0.041z"></path>
            <path d="M25.071 31.983c0.651-1.114 1.204-2.073 1.769-3.026 4.231-7.129 8.472-14.252 12.686-21.391 0.485-0.819 1.171-1.216 2.091-1.222 3.714-0.020 7.429-0.056 11.141 0.001 2.415 0.038 3.307 1.476 2.199 3.52-1.126 2.071-2.348 4.091-3.569 6.111-0.593 0.98-1.666 1.288-2.722 1.572-1.094 0.292-1.109 0.338-0.54 1.244 0.671 1.069 0.456 2.126-0.123 3.149-1.268 2.24-2.593 4.454-3.816 6.718-0.539 1-0.888 2.097-1.393 3.321-1.5 0-3.322 0.031-5.141-0.013-0.891-0.023-0.832-0.785-0.769-1.317 0.064-0.529 0.335-1.055 0.602-1.541 1.758-3.174 3.539-6.336 5.31-9.504 0.574-1.024 0.289-1.427-0.891-1.549-1.479-0.154-2.394 0.249-3.17 1.612-2.225 3.911-4.67 7.706-6.996 11.563-0.327 0.542-0.668 0.786-1.344 0.767-1.69-0.046-3.385-0.014-5.321-0.014zM41.361 15.616c0.794 0 1.396-0.064 1.979 0.012 1.377 0.178 2.26-0.449 2.88-1.535 0.801-1.397 1.6-2.795 2.36-4.216 0.421-0.786 0.16-1.209-0.74-1.355-1.841-0.297-2.267-0.101-3.198 1.479-0.095 0.161-0.194 0.318-0.288 0.476-0.961 1.652-1.922 3.303-2.994 5.138zM90.674 24.599c-0.723 1.246-1.353 2.305-1.953 3.381-0.521 0.933-0.256 1.333 0.828 1.463 1.185 0.142 1.957-0.119 2.571-1.28 1.649-3.122 3.483-6.155 5.242-9.224 0.135-0.237 0.247-0.485 0.457-0.904-0.542 0-0.937 0.009-1.335-0.001-1.532-0.039-3.081 0.031-4.594-0.16-1.493-0.188-2.067-1.259-1.633-2.648 0.128-0.409 0.296-0.815 0.519-1.182 2.552-4.334 3.792-6.331 5.045-8.32l-1.294 2.2c0.659-1.057 1.666-1.595 2.944-1.6 3.233-0.015 6.466-0.019 9.702-0.002 1.585 0.007 2.58 0.671 2.705 1.81 0.045 0.41-0.005 0.891-0.196 1.25-0.55 1.037-1.005 2.239-1.87 2.958-0.545 0.45-1.764 0.168-2.679 0.183-1.048 0.019-2.095 0.004-3.335 0.004 0.556-0.916 1.045-1.695 1.503-2.492 0.574-0.996 0.269-1.458-0.901-1.569-1.127-0.109-1.887 0.146-2.427 1.239-0.836 1.69-1.884 3.283-2.837 4.919-0.149 0.26-0.269 0.533-0.479 0.951h4.425c3.188 0.002 4.159 1.511 2.607 4.162-4.073 7.087-6.197 10.584-8.348 14.062l1.93-3.353c-0.588 0.969-1.534 1.487-2.702 1.493-3.297 0.025-6.597 0.057-9.893 0-2.498-0.041-3.377-1.521-2.231-3.655 0.722-1.322 1.354-2.367 2.023-3.386l-0.115 0.187c0.142-0.223 0.479-0.462 0.734-0.467 1.784-0.036 3.573-0.017 5.585-0.017zM124.169 12.539c0.564-0.984 1.067-1.83 1.541-2.69 0.398-0.721 0.178-1.193-0.672-1.297-0.347-0.042-0.749-0.065-1.157-0.065-0.335 0-0.665 0.016-0.992 0.047l0.042-0.003c-0.248 0.024-0.548 0.287-0.689 0.518 10.841-19.314 7.015-13.095 3.2-6.868l-14.765 25.92c-0.521 0.862-0.238 1.285 0.83 1.339 2.459 0.128 2.452 0.124 3.721-1.94 0.583-0.953 0.99-2.246 1.865-2.725 0.877-0.48 2.24-0.142 3.392-0.156 0.699-0.007 1.4-0.002 2.293-0.002-0.466 0.781-0.85 1.434-1.24 2.085-0.691 1.144-1.399 2.279-2.073 3.431-0.708 1.208-1.749 1.831-3.204 1.828-3.105-0.008-6.215 0.005-9.321-0.012-0.473-0.001-0.96-0.071-1.419-0.19-1.332-0.344-1.984-1.303-1.428-2.515 0.782-1.707 1.765-3.337 2.745-4.952 3.295-5.42 6.631-10.814 9.939-16.225 0.699-1.141 1.749-1.711 3.084-1.726 3.010-0.033 6.025-0.076 9.033 0.031 0.819 0.030 1.736 0.436 2.38 0.937 0.358 0.277 0.488 1.201 0.3 1.677-0.448 1.138-1.135 2.19-1.759 3.259-0.087 0.147-0.352 0.279-0.538 0.28-1.653 0.024-3.307 0.015-5.109 0.015zM71.812 15.557c-0.533 0.824-0.922 1.523-1.419 2.145-0.169 0.21-0.602 0.312-0.915 0.318-1.601 0.031-3.202-0.013-4.805 0.036-0.341 0.012-0.832 0.223-0.986 0.486-2.007 3.43-3.966 6.887-5.931 10.34-0.071 0.126-0.087 0.28-0.166 0.542h6.513c-0.475 0.838-0.852 1.541-1.273 2.216-0.095 0.153-0.343 0.302-0.519 0.302-4.282 0.017-8.563 0.013-13.029 0.013 1.019-1.766 1.959-3.397 2.901-5.025 3.672-6.341 7.368-12.67 11-19.034 0.654-1.145 1.489-1.62 2.833-1.6 3.648 0.051 7.3 0.018 11.141 0.018-0.401 0.716-0.703 1.345-1.099 1.913-0.115 0.166-0.495 0.222-0.757 0.223-1.73 0.019-3.461-0.012-5.189 0.030-0.32 0.008-0.78 0.19-0.928 0.431-1.242 2.044-2.426 4.121-3.627 6.189-0.057 0.1-0.091 0.213-0.192 0.454 2.165 0.005 4.217 0.005 6.447 0.005z"></path>
            <path d="M41.361 15.615l2.993-5.134c0.095-0.161 0.194-0.318 0.288-0.478 0.93-1.579 1.358-1.777 3.198-1.479 0.9 0.146 1.159 0.569 0.74 1.356-0.759 1.417-1.559 2.816-2.359 4.216-0.621 1.086-1.503 1.713-2.881 1.535-0.583-0.078-1.185-0.015-1.979-0.015z"></path>
        </symbol>
        <symbol id="icon-takamine" viewBox="0 0 86 32">
            <path d="M19.593 7.579c-1.796 1.909-3.593 3.649-5.221 5.614-2.449 2.759-3.945 6.412-3.945 10.415 0 0.246 0.006 0.492 0.017 0.735l-0.001-0.035c0.281 4.379 2.246 8.197 7.747 7.635 1.123-0.112 2.695-0.449 3.312-1.235 0.842-1.123 0.954-2.751 1.46-4.154-0.898-0.337-1.235 0.168-1.628 0.674-0.674 0.842-1.291 1.74-2.133 2.47-1.067 0.898-2.358 1.347-3.761 0.674-1.291-0.674-1.796-1.909-1.74-3.312 0.056-1.572 0.168-3.144 0.449-4.66 1.212-5.283 3.665-9.872 7.041-13.613l-0.024 0.027c1.684 0.449 3.032 0.954 4.491 1.123 1.965 0.168 3.93-0.281 5.333-1.853 1.291-1.347 0.842-3.032-0.954-3.537-0.676-0.21-1.452-0.331-2.257-0.331-1.33 0-2.582 0.33-3.68 0.913l0.043-0.021c-0.73 0.393-1.179 0.225-1.853-0.112l-8.702-4.211c-1.684-0.73-3.368-1.011-5.165-0.561-2.807 0.674-4.491 2.695-4.323 5.502 0.056 1.179 0.618 2.358 0.842 3.481 0.168 0.842 0.281 1.684 0.168 2.47 0 0.393-0.674 0.954-1.011 0.954-0.561 0-1.179-0.337-1.46-0.786-0.618-0.898-0.168-1.684 0.393-2.526 0.225-0.281 0.393-0.618 0.561-1.067-1.347-0.112-2.358 0.337-2.807 1.179-0.251 0.412-0.399 0.91-0.399 1.443 0 0.57 0.17 1.1 0.462 1.543l-0.007-0.011c1.011 1.684 3.368 2.246 5.053 1.291 1.572-0.786 2.414-3.032 1.404-4.716-0.505-0.898-1.123-1.74-1.572-2.639-1.123-1.909-0.112-3.986 2.077-4.098 1.123-0.056 2.358 0.112 3.368 0.618 2.807 1.516 5.614 3.2 8.421 4.772zM34.47 5.614c-0.168 0.393-0.281 0.786-0.505 1.123-1.909 4.042-3.874 8.084-5.895 12.070-0.561 1.123-0.561 2.133-0.449 3.368l3.088-0.393c-0.898-1.853 0.561-2.975 1.123-4.604 0.898 1.235 1.123 2.414 1.291 3.649 0.281 2.246 1.067 4.323 3.368 5.221 3.368 1.291 6.568 0.842 9.544-1.067 0.561-0.337 0.954-1.123 1.46-1.74-1.684-0.505-2.246-0.168-3.032 0.842-0.561 0.561-1.291 1.291-2.021 1.404-3.368 0.561-5.951-0.112-6.905-4.211-0.393-1.853-0.73-3.649-2.414-4.94 5.053-1.46 7.13-3.761 6.4-7.074l-5.277 3.256 1.404-3.032 1.853-3.705c0.281-0.618 0.168-1.291-0.505-1.404-1.235-0.225-2.47-0.056-3.93 0.561l1.46 0.618zM51.368 22.119l1.404-0.225c0.73-0.168 1.123-0.337 1.347-1.291 0.588-2.45 1.876-4.54 3.637-6.109l0.012-0.010c-0.898 2.526-2.863 4.66-2.414 7.691l3.593-0.73v-0.337l-1.179-0.449 0.73-1.796c0.674-1.516 1.404-3.032 1.965-4.604 0.168-0.449 0.168-1.291-0.112-1.572-0.225-0.225-1.067-0.168-1.516 0-0.73 0.281-1.347 0.73-1.965 1.123 0-1.347-0.337-1.684-1.684-1.291-0.618 0.168-1.179 0.561-1.797 0.954l-0.056-1.123c-1.572 0.393-3.088 0.168-4.491 0.73v0.337l1.909 0.449c-0.786 1.516-1.46 2.975-2.246 4.379-0.57 0.864-0.909 1.924-0.909 3.063 0 0.306 0.024 0.606 0.072 0.899l-0.004-0.032c0.449-0.112 0.898-0.281 1.347-0.281 0.842 0 1.011-0.393 1.235-1.123 0.73-2.526 2.021-4.772 3.93-6.625-0.73 2.695-2.919 4.828-2.807 7.86zM73.207 13.642l0.281 0.225c-0.112 0.337-0.168 0.73-0.337 1.067-0.786 1.684-1.684 3.425-2.358 5.221-0.674 1.684-0.561 1.853 1.235 1.74h1.291l1.123-0.337-1.291-0.618c0.112-0.449 0.225-0.898 0.449-1.291 0.561-1.123 1.291-2.246 1.796-3.368 0.375-0.763 0.667-1.648 0.833-2.577l0.009-0.061c0.112-0.73-0.281-1.347-1.179-1.123-1.067 0.168-2.077 0.505-3.088 0.786 0.112-0.674-0.337-0.786-1.067-0.674-0.954 0.225-2.021 0.056-3.088 0.954l1.572 0.337c-0.898 2.919-3.144 5.165-2.975 8.309l3.593-0.561 0.056-0.281c-1.067-0.281-1.123-0.898-0.73-1.684 0.73-1.516 1.403-3.032 2.246-4.491 0.393-0.618 1.123-1.067 1.628-1.572z"></path>
            <path d="M42.105 19.649c0.225 0.73 0.337 1.516 0.618 2.246 0.168 0.281 0.674 0.618 1.011 0.561 1.011-0.056 2.47-1.965 2.47-3.144-0.449 0.337-0.842 0.561-1.46 1.123v-4.604c-0.168 0-0.281-0.112-0.449-0.168l-3.93 4.379-0.225-0.225c0.73-2.639 2.077-4.828 4.491-6.344 0.618 1.403 1.123 2.807 2.751 3.368l-0.281-4.379c-0.842 0-1.74-0.112-2.582 0-3.93 0.842-7.523 4.435-7.186 8.982 0.112 1.123 0.449 1.404 1.347 0.786 1.235-0.786 2.358-1.684 3.481-2.582zM22.344 19.705c0.168 0.73 0.281 1.46 0.561 2.189 0.112 0.281 0.561 0.618 0.898 0.618 1.067 0 2.582-1.853 2.526-3.088l-1.404 1.011-0.225-4.547-2.189 2.133-2.021 1.965c0.561-2.807 1.909-4.997 4.323-6.456 0.561 1.403 1.067 2.807 2.751 3.368l-0.281-4.323c-4.491-1.011-10.274 3.593-9.768 8.87 0.112 1.179 0.449 1.46 1.404 0.842l3.368-2.582zM79.158 18.246c3.368-0.337 6.849-3.2 6.568-5.277-2.133-0.168-4.267-0.281-6.175 0.954-2.133 1.403-3.537 3.312-3.368 6.007 0.112 1.235 0.786 2.189 1.796 2.358 1.235 0.281 5.726-1.796 6.512-3.144l-1.123 0.225-2.807 1.123c-0.842 0.281-1.291 0-1.403-0.954v-1.291zM66.807 12.912l-0.337-0.281-4.098 0.505-0.112 0.393 1.404 0.393-0.393 0.898c-0.786 1.516-1.572 2.975-2.246 4.491-0.281 0.449-0.505 0.954-0.561 1.46-0.225 1.123 0.225 1.46 1.291 1.347l2.358-0.449 0.561-0.225c-1.516-0.618-1.572-0.786-0.954-2.021 0.393-0.842 0.954-1.572 1.347-2.414l1.684-4.098zM65.853 7.972l-1.403 1.291c-0.674 0.561-0.561 1.123 0.056 1.684 1.123 0.786 2.246 0.674 3.537 0.618l-2.246-3.593z"></path>
            <path d="M19.593 7.579c-2.807-1.572-5.614-3.256-8.421-4.772-1.011-0.505-2.246-0.674-3.368-0.618-2.246 0.112-3.2 2.246-2.077 4.098l1.572 2.639c1.011 1.684 0.168 3.93-1.404 4.772-0.526 0.285-1.152 0.453-1.817 0.453-1.346 0-2.533-0.687-3.227-1.73l-0.009-0.014c-0.304-0.442-0.485-0.989-0.485-1.577 0-0.515 0.138-0.997 0.38-1.411l-0.007 0.013c0.505-0.842 1.516-1.291 2.919-1.123l-0.561 1.011c-0.561 0.786-1.123 1.684-0.449 2.526 0.281 0.449 0.954 0.786 1.46 0.786 0.337 0 0.954-0.561 1.011-0.954 0.112-0.786 0-1.684-0.168-2.47-0.225-1.123-0.786-2.246-0.842-3.481-0.112-2.807 1.572-4.828 4.323-5.502 1.796-0.449 3.537-0.168 5.165 0.561 2.919 1.347 5.782 2.807 8.702 4.211 0.618 0.337 1.123 0.505 1.853 0.056 1.038-0.54 2.267-0.857 3.569-0.857 0.83 0 1.63 0.129 2.381 0.367l-0.056-0.015c1.796 0.505 2.246 2.189 0.954 3.537-1.123 1.151-2.689 1.864-4.421 1.864-0.322 0-0.638-0.025-0.946-0.072l0.034 0.004c-1.46-0.112-2.807-0.618-4.491-1.067-3.36 3.729-5.815 8.338-6.979 13.439l-0.039 0.203c-0.281 1.516-0.393 3.088-0.449 4.66 0 1.404 0.449 2.639 1.74 3.312 1.404 0.674 2.695 0.225 3.761-0.674 0.842-0.73 1.46-1.684 2.133-2.47 0.393-0.505 0.73-1.011 1.628-0.674-0.505 1.404-0.618 3.032-1.46 4.154-0.674 0.786-2.189 1.123-3.368 1.235-5.446 0.561-7.411-3.256-7.635-7.635-0.010-0.209-0.016-0.454-0.016-0.701 0-4.003 1.496-7.656 3.96-10.431l-0.014 0.016c1.572-1.965 3.368-3.705 5.165-5.614zM24.702 6.175c1.516 1.011 3.032 1.516 4.66 1.291 0.505 0 0.898-0.561 1.347-0.842-0.337-0.337-0.674-0.842-1.123-1.011-1.516-0.561-3.2-0.393-4.884 0.561zM34.47 5.614l-1.46-0.618c1.46-0.674 2.695-0.842 3.93-0.618 0.674 0.112 0.786 0.786 0.505 1.404l-1.853 3.705-1.404 3.032 5.333-3.256c0.73 3.368-1.347 5.614-6.4 7.074 1.684 1.291 2.021 3.088 2.414 4.94 0.954 4.098 3.537 4.716 6.905 4.211 0.73-0.112 1.516-0.786 2.021-1.404 0.786-1.011 1.347-1.347 3.032-0.842-0.561 0.674-0.842 1.404-1.46 1.74-2.975 1.909-6.175 2.358-9.544 1.123-2.302-0.898-3.088-2.975-3.368-5.277-0.168-1.235-0.393-2.414-1.291-3.649-0.561 1.684-2.021 2.807-1.123 4.604l-3.088 0.337c-0.168-1.123-0.056-2.246 0.449-3.312l5.951-12.070 0.449-1.123zM32.786 15.046c2.47-0.561 3.481-1.403 3.761-3.144l-3.705 3.144zM51.368 22.119c-0.112-3.088 2.077-5.221 2.807-7.86-1.785 1.76-3.142 3.95-3.901 6.403l-0.029 0.109c-0.225 0.786-0.393 1.179-1.235 1.179-0.449 0-0.898 0.168-1.347 0.225-0.043-0.26-0.067-0.561-0.067-0.867 0-1.139 0.339-2.199 0.922-3.084l-0.013 0.021c0.786-1.347 1.46-2.807 2.246-4.323l-1.909-0.449v-0.337c1.404-0.561 2.975-0.337 4.491-0.674v1.011c0.618-0.337 1.123-0.786 1.797-0.954 1.347-0.393 1.684-0.056 1.684 1.291 0.618-0.393 1.235-0.842 1.965-1.123 0.449-0.168 1.291-0.225 1.516 0 0.281 0.281 0.281 1.123 0.112 1.572-0.561 1.572-1.291 3.088-1.965 4.604l-0.73 1.797 1.123 0.505 0.056 0.337-3.593 0.674c-0.449-3.032 1.516-5.165 2.414-7.691-1.773 1.58-3.061 3.67-3.633 6.039l-0.016 0.080c-0.225 0.954-0.618 1.123-1.347 1.291l-1.404 0.225zM73.207 13.642c-0.561 0.561-1.235 0.954-1.628 1.572l-2.246 4.491c-0.393 0.786-0.337 1.404 0.73 1.684v0.281l-3.649 0.561c-0.168-3.144 2.077-5.446 2.975-8.309l-1.516-0.337c1.011-0.898 2.077-0.73 3.032-0.954 0.786-0.112 1.179 0 1.123 0.674l3.032-0.842c0.898-0.168 1.291 0.449 1.179 1.179-0.175 0.99-0.467 1.876-0.868 2.698l0.026-0.060-1.796 3.368c-0.225 0.393-0.281 0.842-0.449 1.291l1.291 0.561c-0.561 0.225-0.842 0.337-1.123 0.337l-1.291 0.056c-1.796 0.112-1.909 0-1.235-1.74 0.674-1.796 1.572-3.481 2.358-5.221 0.168-0.337 0.225-0.73 0.337-1.123-0.112 0-0.168-0.112-0.281-0.168z"></path>
            <path d="M42.105 19.649c-1.123 0.842-2.246 1.796-3.368 2.582-0.954 0.618-1.291 0.393-1.404-0.73-0.337-4.604 3.256-8.197 7.186-8.982 0.842-0.168 1.684 0 2.582 0l0.281 4.323c-1.684-0.561-2.133-1.965-2.751-3.368-2.238 1.433-3.86 3.66-4.477 6.275l-0.014 0.069 0.281 0.225 3.93-4.379 0.337 0.168v4.604l1.516-1.123c0 1.179-1.46 3.088-2.47 3.2-0.337 0-0.842-0.337-1.011-0.674-0.281-0.674-0.393-1.46-0.561-2.189zM22.344 19.705l-3.368 2.582c-1.011 0.618-1.347 0.337-1.46-0.842-0.561-5.277 5.221-9.881 9.768-8.87l0.281 4.323c-1.684-0.561-2.133-1.965-2.751-3.368-2.248 1.43-3.839 3.722-4.314 6.399l-0.008 0.058 2.021-1.965 2.246-2.133 0.168 4.547 1.404-1.011c0.056 1.235-1.46 3.088-2.526 3.088-0.337 0-0.786-0.337-0.898-0.618-0.281-0.73-0.393-1.46-0.561-2.189zM79.158 18.246v1.291c0.112 0.898 0.561 1.235 1.46 0.898 0.898-0.281 1.796-0.73 2.751-1.067l1.123-0.225c-0.786 1.347-5.277 3.425-6.512 3.144-1.011-0.168-1.684-1.123-1.796-2.358-0.168-2.695 1.235-4.547 3.368-6.007 1.909-1.235 4.042-1.123 6.175-0.954 0.281 2.077-3.2 4.94-6.568 5.277zM79.607 16.73c1.403 0 2.751-1.179 3.088-2.807-1.421 0.417-2.542 1.446-3.076 2.775l-0.011 0.032zM66.807 12.912c-0.561 1.403-1.123 2.751-1.796 4.098-0.337 0.842-0.898 1.572-1.291 2.414-0.561 1.235-0.561 1.404 1.011 2.021l-0.618 0.225-2.358 0.449c-1.123 0.112-1.516-0.281-1.347-1.347 0.112-0.505 0.337-1.011 0.561-1.46l2.695-5.389-1.404-0.393 0.112-0.393 4.098-0.561 0.337 0.337zM65.853 7.972l2.189 3.593c-1.235 0.056-2.47 0.168-3.537-0.674-0.561-0.505-0.73-1.067 0-1.684l1.347-1.235z"></path>
            <path d="M24.702 6.175c1.684-0.954 3.312-1.123 4.94-0.561 0.393 0.168 0.73 0.674 1.067 1.011-0.449 0.281-0.842 0.786-1.347 0.842-1.684 0.225-3.144-0.337-4.66-1.291zM32.842 15.046l3.705-3.144c-0.281 1.684-1.291 2.582-3.705 3.144zM79.607 16.73c0.561-1.46 1.628-2.358 3.088-2.807-0.337 1.628-1.684 2.807-3.088 2.807z"></path>
        </symbol>
        <symbol id="icon-seagull" viewBox="0 0 55 32">
            <path d="M54.563 30.102h-0.163c-1.247 0.651-1.953 0.542-2.603-0.705-0.651-1.193-0.976-2.549-1.41-3.797-0.054-0.163 0-0.434 0.108-0.542 1.247-2.169 1.898-4.61 2.386-7.051 0.434-2.061 0.759-4.122 0.434-6.237-0.108-0.542-0.163-1.356-0.814-1.41-0.542-0.054-1.139 0.271-1.627 0.542-0.325 0.217-0.542 0.597-0.814 0.976l-0.814 1.681c-1.356 3.797-1.41 7.756-0.759 11.715 0.163 0.814-0.325 1.085-0.759 1.41s-0.976 0.434-1.519 0.054c-0.814-0.542-1.41-2.983-1.085-3.959 0.651-1.681 1.302-3.363 1.79-5.098 0.434-1.302 0.542-2.658 0.217-4.014-0.163-0.597-0.434-1.139-1.139-1.247-0.705-0.163-1.302 0.108-1.627 0.705-0.38 0.542-0.651 1.193-0.814 1.844-0.365 1.59-0.575 3.415-0.575 5.29 0 1.234 0.091 2.446 0.266 3.631l-0.016-0.134c0.108 0.814-0.217 1.356-0.705 1.844-0.38 0.38-0.814 0.325-1.031-0.163-0.217-0.542-0.488-1.193-0.488-1.79 0.054-1.736 0.217-3.525 0.38-5.261 0-0.814 0.163-1.627 0.217-2.441 0-0.542-0.325-0.705-0.814-0.705-0.705 0-1.085 0.38-1.193 1.085-0.217 1.627-0.38 3.254-0.705 4.881-0.29 1.261-0.644 2.347-1.081 3.39l0.051-0.136c-0.108 0.325-0.542 0.651-0.922 0.597-0.217 0-0.542-0.488-0.542-0.814-0.108-0.814-0.163-1.736-0.054-2.549 0.163-1.573 0.488-3.037 0.705-4.61 0.108-0.705-0.434-1.247-1.139-0.922-0.325 0.108-0.597 0.488-0.705 0.814-0.217 0.542-0.325 1.139-0.325 1.736 0 1.302-0.814 2.169-1.681 3.092-0.054-0.488-0.054-0.868-0.163-1.247-0.163-1.085-0.325-2.115-0.651-3.092-0.325-1.030-1.030-1.356-2.007-1.085-0.759 0.217-1.519 0.542-2.115 1.085-1.79 1.573-2.658 3.58-2.929 5.966 0 0.217-0.217 0.434-0.325 0.651-0.271-0.163-0.705-0.271-0.814-0.542-0.163-0.434-0.217-0.922-0.163-1.41 0.108-1.085 0.325-2.169 0.542-3.254 0.108-0.38 0.163-0.759-0.271-0.976-0.488-0.217-0.814 0-1.085 0.38l-0.271 0.651c-0.163 0.542-0.217 1.085-0.434 1.627-0.488 1.247-0.976 2.495-1.519 3.634-0.163 0.325-0.814 0.597-1.139 0.542-0.542 0-0.651-0.597-0.705-1.085-0.054-1.627 0.434-3.146 1.356-4.447 0.922-1.41 2.169-2.278 3.797-2.332 0.217 0 0.38-0.108 0.542-0.163v-0.163c-0.271-0.108-0.488-0.325-0.759-0.38-1.247-0.325-2.386 0-3.363 0.759-2.037 1.694-3.369 4.176-3.524 6.971l-0.001 0.025c0 0.271 0 0.651-0.163 0.759-0.597 0.542-1.247 1.085-1.898 1.41-0.759 0.434-1.464 0.163-1.79-0.651-0.217-0.597-0.271-1.247-0.38-1.844-0.108-0.488 0-0.759 0.488-1.030 1.356-0.759 2.712-1.681 3.634-2.983 0.507-0.639 0.813-1.458 0.813-2.348 0-0.224-0.019-0.444-0.057-0.658l0.003 0.023c-0.271-1.627-1.79-2.441-3.2-1.573-0.705 0.488-1.356 1.193-1.844 1.953-1.030 1.573-1.464 3.363-1.627 5.207 0 0.271-0.108 0.542-0.271 0.705l-1.627 1.030c-1.139-1.193-2.278-2.224-3.308-3.363-1.030-1.085-2.007-2.115-2.82-3.254-0.922-1.302-0.814-2.712 0.054-3.959 0.62-0.933 1.667-1.539 2.855-1.539 0.395 0 0.775 0.067 1.128 0.191l-0.024-0.007c1.247 0.38 2.061 1.627 2.007 3.037 0 0.922-0.542 1.627-1.085 2.386l-0.163 0.597 0.705 0.108 0.325-0.054c1.302-0.651 2.169-1.627 2.278-3.037 0.017-0.126 0.027-0.272 0.027-0.42 0-1.209-0.66-2.264-1.639-2.825l-0.016-0.008c-1.681-1.030-3.525-1.139-5.37-0.705-3.525 0.922-4.881 4.068-2.929 7.105 0.759 1.247 1.79 2.278 2.712 3.363l3.525 3.525c-0.922 0.705-1.79 1.302-2.603 2.007s-1.627 1.519-2.332 2.386c-0.922 1.139-0.542 2.115 0.976 2.332 2.386 0.325 4.556-0.325 6.346-1.953 0.608-0.501 0.993-1.254 0.993-2.097 0-0.218-0.026-0.43-0.074-0.633l0.004 0.018-0.814-2.332 1.085-0.705c0.163 0.759 0.271 1.464 0.542 2.169 0.434 1.247 1.41 2.007 2.603 1.844 0.705-0.108 1.356-0.542 1.953-0.868 0.488-0.325 0.868-0.814 1.356-1.247 0.814 0.976 1.79 1.247 2.712 0.759 0.542-0.325 1.085-0.759 1.464-1.193 0.488-0.542 0.814-1.193 1.085-1.681 0.325 0.488 0.542 1.193 0.976 1.41 0.434 0.271 1.085 0 1.79 0 0.597 0.814 1.139 1.085 2.169 0.759 0.648-0.224 1.197-0.598 1.624-1.081l0.003-0.004c0.705-0.868 1.139-1.898 1.681-2.875l0.271-0.542 0.163 1.139c0.108 0.705 0 1.302-0.542 1.844-0.609 0.59-1.146 1.248-1.601 1.963l-0.026 0.044c-0.54 0.856-1.016 1.841-1.379 2.88l-0.031 0.103c-0.325 1.030 0 1.79 0.705 2.169 0.759 0.488 1.898 0.434 2.549-0.271 0.597-0.597 1.085-1.356 1.464-2.169 0.651-1.627 0.705-3.363 0.542-5.044-0.054-1.193 0.759-1.681 1.302-2.332 0.217 1.193 0.325 2.332 0.705 3.471 0.434 1.356 1.898 1.627 2.983 0.759 0.38-0.325 0.651-0.759 0.976-1.193l0.434-0.922 0.868 2.441c0.597 1.193 1.627 1.302 2.603 0.38l0.705-0.759c0.488 1.085 0.814 2.332 2.115 2.712 1.356 0.325 2.169-0.705 3.092-1.519 0.054 0.271 0.108 0.542 0.217 0.705 0.542 1.030 1.030 2.115 1.681 3.037 0.705 0.922 1.898 1.085 2.875 0.651 0.705-0.325 1.085-0.868 0.868-1.519z"></path>
            <path d="M12.692 6.942l0.108 0.271 1.519-0.38c1.79-0.705 3.58-1.085 5.424-1.247 1.79-0.108 4.339 1.356 5.153 2.983-0.922 0.705-1.898 1.085-3.037 0.814h-0.759c0.108 0.271 0.163 0.542 0.325 0.705 1.085 0.976 2.386 1.193 3.797 0.922 1.627-0.325 3.254-1.085 4.773-1.844 0.542-0.271 1.085-0.38 1.627-0.542l0.108 0.217c-0.108 0-0.217 0.054-0.271 0.163l-0.38 0.434c0.217 0 0.38 0.217 0.542 0.217 1.627-0.163 2.983 0.38 4.176 1.519 1.227 1.191 2.769 2.064 4.489 2.481l0.067 0.014c0.163 0.054 0.434-0.054 0.597-0.108 0-0.163-0.054-0.38-0.163-0.542l-3.254-3.905c-0.473-0.567-1.166-0.936-1.946-0.976l-0.007-0-3.742-0.217c-0.325 0-0.597-0.163-0.922-0.271-0.542-0.217-1.030-0.542-1.519-0.542-1.085 0-2.007-0.325-2.875-0.976l-1.356-1.085c-1.030-0.814-2.169-1.302-3.471-0.868l-0.38 0.054c-2.712 0.434-5.478 0.976-7.973 2.278l-0.651 0.434z"></path>
            <path d="M27.498 0c-0.007-0-0.016-0-0.025-0-2.27 0-4.348 0.82-5.955 2.181l0.013-0.011c-0.271 0.217-0.542 0.542-0.705 0.814-0.108 0.108 0 0.38 0 0.542 0.163 0 0.38 0 0.542-0.108l1.193-0.922c3.58-2.712 9.763-2.441 12.692 2.549 0.38 0.651 0.542 1.519 0.922 2.224 0 0.163 0.217 0.271 0.38 0.434 0.054-0.163 0.271-0.38 0.271-0.542 0-0.434-0.108-0.814-0.271-1.247-1.085-3.58-4.556-5.912-9.058-5.912zM17.898 9.437c0.163 1.898 0.814 3.58 1.627 5.153 0.108 0.217 0.542 0.542 0.759 0.434 0.542-0.217 0.163-0.542 0-0.868-0.651-1.193-1.085-2.495-1.085-3.797 0-1.139 0.108-2.278 0.163-3.363 0-0.217-0.163-0.488-0.217-0.705-0.163 0.163-0.434 0.271-0.542 0.488l-0.651 2.658zM36.881 12.475c-0.271-0.108-0.434-0.271-0.542-0.217-0.217 0-0.434 0.163-0.542 0.325-0.296 0.488-0.657 1.145-0.997 1.815l-0.088 0.192c-0.108 0.163-0.108 0.38-0.163 0.597 0.217 0 0.651 0.108 0.705 0l1.627-2.712z"></path>
            <path d="M54.563 30.102c0.163 0.651-0.163 1.193-0.868 1.519-0.976 0.434-2.169 0.271-2.875-0.651-0.651-0.922-1.085-2.007-1.627-3.037-0.163-0.217-0.217-0.434-0.271-0.705-0.976 0.814-1.736 1.844-3.092 1.464-1.302-0.325-1.627-1.519-2.169-2.712l-0.651 0.814c-0.976 0.922-2.007 0.814-2.603-0.38-0.38-0.759-0.542-1.627-0.868-2.441l-0.434 0.922c-0.325 0.434-0.542 0.868-0.976 1.193-1.085 0.922-2.549 0.542-2.983-0.759-0.38-1.085-0.488-2.278-0.705-3.471-0.542 0.651-1.41 1.085-1.302 2.332 0.163 1.681 0.054 3.417-0.542 5.044-0.325 0.814-0.868 1.573-1.464 2.169-0.651 0.705-1.79 0.759-2.549 0.325-0.651-0.434-1.030-1.193-0.705-2.224 0.69-1.933 1.705-3.594 2.993-5.001l-0.010 0.011c0.542-0.542 0.705-1.085 0.542-1.844 0-0.325 0-0.651-0.108-1.193l-0.271 0.597c-0.542 0.976-0.976 2.007-1.627 2.82-0.431 0.487-0.979 0.86-1.6 1.077l-0.027 0.008c-1.085 0.434-1.627 0.108-2.169-0.759-0.705 0.054-1.41 0.325-1.898 0.054-0.434-0.217-0.597-0.922-0.868-1.41-0.325 0.488-0.651 1.085-1.085 1.627s-0.922 0.922-1.464 1.193c-0.976 0.542-1.953 0.271-2.766-0.705-0.488 0.38-0.868 0.922-1.356 1.247-0.597 0.38-1.302 0.759-1.953 0.868-1.193 0.163-2.169-0.542-2.603-1.898-0.271-0.651-0.38-1.356-0.542-2.115l-1.085 0.705 0.814 2.332c0.045 0.185 0.071 0.397 0.071 0.615 0 0.843-0.385 1.596-0.988 2.094l-0.005 0.004c-1.844 1.627-3.959 2.278-6.346 1.953-1.464-0.217-1.898-1.193-0.976-2.332 0.651-0.868 1.519-1.627 2.332-2.386 0.814-0.705 1.681-1.302 2.603-2.007-1.193-1.193-2.386-2.332-3.471-3.525-0.976-1.085-2.007-2.169-2.766-3.363-1.898-3.037-0.542-6.183 2.929-7.051 1.844-0.542 3.688-0.38 5.315 0.651 1.023 0.562 1.705 1.632 1.705 2.862 0 0.138-0.009 0.275-0.025 0.408l0.002-0.016c-0.108 1.464-0.976 2.386-2.278 3.037-0.108 0-0.217 0.108-0.325 0.054l-0.705-0.108 0.217-0.597c0.488-0.759 1.085-1.464 1.085-2.386 0-1.464-0.814-2.658-2.061-3.037-1.519-0.488-3.092 0-3.959 1.356-0.868 1.247-0.976 2.712-0.108 3.959 0.9 1.2 1.824 2.262 2.819 3.253l0.001 0.001 3.417 3.363 1.627-1.030c0.163-0.108 0.217-0.434 0.271-0.705 0.163-1.844 0.597-3.634 1.627-5.207 0.488-0.759 1.085-1.464 1.844-1.953 1.41-0.868 2.929 0 3.254 1.573 0.028 0.174 0.044 0.375 0.044 0.579 0 0.915-0.324 1.755-0.863 2.41l0.005-0.007c-0.982 1.229-2.193 2.231-3.572 2.954l-0.062 0.029c-0.434 0.271-0.597 0.542-0.542 1.030 0.163 0.597 0.217 1.247 0.434 1.844 0.325 0.814 1.030 1.085 1.79 0.651 0.651-0.325 1.302-0.868 1.898-1.41 0.108-0.108 0.108-0.542 0.163-0.759 0.157-2.821 1.488-5.303 3.51-6.984l0.016-0.013c0.976-0.759 2.115-1.085 3.363-0.759 0.271 0.054 0.542 0.271 0.759 0.38v0.163c-0.163 0.054-0.325 0.163-0.542 0.163-1.62 0.099-3.010 1.001-3.785 2.31l-0.012 0.022c-0.849 1.162-1.359 2.62-1.359 4.196 0 0.069 0.001 0.138 0.003 0.207l-0-0.010c0 0.542 0.108 1.085 0.705 1.193 0.325 0 0.976-0.271 1.085-0.597 0.597-1.139 1.085-2.386 1.573-3.58 0.217-0.542 0.271-1.085 0.434-1.681l0.271-0.651c0.271-0.434 0.597-0.542 1.085-0.38 0.434 0.217 0.38 0.542 0.271 0.976-0.217 1.085-0.434 2.169-0.542 3.254-0.054 0.488 0 0.976 0.163 1.41 0.108 0.271 0.542 0.38 0.814 0.542 0.108-0.217 0.325-0.434 0.325-0.651 0.271-2.386 1.139-4.393 2.929-5.966 0.542-0.542 1.356-0.868 2.115-1.085 0.976-0.271 1.627 0.054 2.007 1.085 0.325 0.976 0.434 2.061 0.651 3.092l0.108 1.247c0.922-0.922 1.736-1.79 1.736-3.092 0-0.542 0.108-1.193 0.271-1.736 0.163-0.325 0.434-0.705 0.759-0.814 0.705-0.325 1.247 0.217 1.085 0.922-0.217 1.573-0.542 3.037-0.651 4.61-0.108 0.814-0.054 1.736 0 2.549 0 0.325 0.38 0.814 0.597 0.814 0.325 0 0.814-0.271 0.922-0.542 0.434-1.085 0.814-2.169 1.030-3.363 0.325-1.627 0.488-3.254 0.705-4.881 0.108-0.651 0.488-0.976 1.193-1.030 0.488 0 0.814 0.163 0.814 0.705l-0.271 2.441-0.325 5.261c0 0.542 0.271 1.193 0.488 1.79 0.217 0.542 0.597 0.542 1.031 0.163 0.488-0.542 0.814-1.085 0.705-1.844-0.38-2.929-0.38-5.912 0.325-8.786 0.108-0.651 0.434-1.302 0.814-1.844 0.325-0.542 0.922-0.868 1.627-0.705 0.651 0.108 0.976 0.651 1.139 1.247 0.38 1.356 0.217 2.712-0.217 4.014-0.542 1.736-1.139 3.417-1.79 5.098-0.38 0.976 0.271 3.363 1.085 3.959 0.542 0.38 1.085 0.271 1.519-0.054 0.434-0.38 0.922-0.597 0.759-1.41-0.282-1.337-0.443-2.874-0.443-4.449 0-2.601 0.44-5.1 1.25-7.425l-0.048 0.158 0.814-1.627c0.217-0.434 0.488-0.814 0.814-1.030 0.488-0.271 1.085-0.597 1.627-0.542 0.651 0.054 0.705 0.814 0.814 1.41 0.325 2.115 0 4.176-0.434 6.237-0.452 2.644-1.284 5.012-2.448 7.175l0.061-0.124c-0.108 0.108-0.163 0.38-0.108 0.542 0.434 1.247 0.759 2.603 1.41 3.797 0.651 1.247 1.302 1.356 2.603 0.705h0.163zM50.224 23.593c1.389-3.242 2.196-7.015 2.196-10.976 0-0.432-0.010-0.861-0.029-1.288l0.002 0.061c-1.736 1.139-3.092 9.112-2.169 12.203zM31.024 18.712c-0.054-0.217-0.108-0.759-0.325-0.868-0.271-0.108-0.705 0.108-1.030 0.271-0.163 0.054-0.325 0.217-0.488 0.38-1.19 1.381-1.937 3.173-2.006 5.138l-0 0.014c0 0.271 0.217 0.759 0.488 0.868 0.217 0.108 0.705-0.108 0.922-0.325 1.356-1.519 2.169-3.308 2.441-5.532zM8.081 26.034c-0.38 0.271-0.814 0.542-1.085 0.868-0.763 0.699-1.47 1.407-2.146 2.144l-0.023 0.025c-0.271 0.163-0.38 0.705-0.271 0.868 0.217 0.217 0.651 0.38 0.976 0.325 0.705-0.163 1.464-0.38 2.061-0.759 1.247-0.868 1.41-2.115 0.542-3.471zM12.963 21.641c1.41-0.976 2.658-1.79 3.254-3.254 0.434-0.814 0.38-1.627-0.108-1.898-0.542-0.271-1.193 0-1.736 0.814-0.757 1.242-1.247 2.723-1.354 4.309l-0.002 0.029zM44.692 20.773l0.271 0.054 1.085-4.23c0.163-0.759 0.217-1.573 0.163-2.332 0-0.271-0.271-0.542-0.434-0.868-0.217 0.271-0.542 0.434-0.597 0.705-0.651 2.169-0.542 4.447-0.488 6.671zM31.512 24.949c-1.142 1.127-1.978 2.562-2.374 4.17l-0.013 0.061c-0.054 0.38-0.163 1.030 0.38 1.085 0.325 0.108 0.705-0.325 1.085-0.542l0.163-0.271c0.651-1.356 0.759-2.82 0.759-4.502z"></path>
            <path d="M12.692 6.942l0.651-0.434c2.495-1.302 5.207-1.844 7.973-2.278h0.38c1.356-0.542 2.441 0 3.471 0.814l1.356 1.085c0.741 0.609 1.7 0.978 2.744 0.978 0.046 0 0.091-0.001 0.137-0.002l-0.007 0c0.542 0 0.976 0.325 1.519 0.542 0.325 0.108 0.597 0.271 0.922 0.271l3.742 0.217c0.807 0.024 1.522 0.397 2.003 0.972l0.003 0.004 3.2 3.905c0.108 0.163 0.108 0.38 0.163 0.542-0.163 0-0.434 0.163-0.597 0.108-1.787-0.431-3.329-1.304-4.558-2.497l0.002 0.002c-0.94-0.982-2.261-1.593-3.725-1.593-0.159 0-0.316 0.007-0.471 0.021l0.020-0.001c-0.163 0-0.325-0.108-0.542-0.217l0.38-0.38c0.054-0.108 0.163-0.108 0.271-0.163l-0.054-0.217c-0.542 0.163-1.193 0.271-1.681 0.542-1.391 0.802-3.004 1.438-4.711 1.822l-0.116 0.022c-1.356 0.271-2.658 0-3.742-0.922-0.163-0.163-0.217-0.434-0.325-0.651 0.217 0 0.542-0.108 0.759-0.054 1.139 0.271 2.169-0.108 3.037-0.814-0.868-1.627-3.363-3.092-5.153-2.983-1.844 0.108-3.634 0.542-5.424 1.247l-1.519 0.38-0.108-0.271z"></path>
            <path d="M27.498 0c4.502 0 7.919 2.332 9.058 5.966 0.163 0.38 0.217 0.814 0.271 1.193 0 0.163-0.217 0.38-0.271 0.542-0.163-0.108-0.325-0.271-0.38-0.434-0.325-0.705-0.542-1.519-0.922-2.224-2.875-5.044-9.112-5.207-12.692-2.549l-1.247 0.922c-0.108 0.108-0.325 0.108-0.488 0.108 0-0.163-0.108-0.434 0-0.542l0.759-0.814c1.586-1.343 3.652-2.162 5.91-2.17h0.002zM17.898 9.437l0.759-2.712c0.054-0.163 0.325-0.271 0.542-0.434l0.163 0.705c-0.054 1.085-0.217 2.17-0.163 3.308 0 1.356 0.434 2.712 1.085 3.851 0.163 0.271 0.542 0.651 0 0.868-0.163 0.054-0.651-0.217-0.759-0.434-0.856-1.485-1.436-3.234-1.623-5.098l-0.004-0.054zM36.881 12.475l-1.627 2.712c-0.054 0.108-0.488 0-0.705 0 0-0.217 0-0.434 0.108-0.597 0.429-0.864 0.79-1.521 1.172-2.165l-0.087 0.158c0.163-0.163 0.38-0.271 0.542-0.325 0.163 0 0.325 0.108 0.542 0.217z"></path>
            <path d="M50.169 23.593c-0.868-3.092 0.542-11.064 2.169-12.203 0.271 4.339-0.597 8.19-2.169 12.203zM31.024 18.658c-0.325 2.169-1.085 4.014-2.441 5.532-0.217 0.217-0.705 0.434-0.922 0.325-0.271-0.108-0.488-0.542-0.488-0.868 0.108-1.953 0.759-3.688 2.007-5.153 0.163-0.163 0.325-0.325 0.542-0.38 0.271-0.163 0.705-0.38 0.976-0.271 0.217 0.108 0.271 0.651 0.325 0.814zM8.136 26.034c0.868 1.41 0.705 2.712-0.542 3.525-0.597 0.38-1.356 0.542-2.061 0.759-0.325 0.054-0.759-0.108-0.976-0.325-0.108-0.163 0-0.705 0.217-0.922l2.17-2.169 1.139-0.814zM13.017 21.695c0.217-1.627 0.542-3.092 1.356-4.339 0.542-0.759 1.247-1.085 1.736-0.814s0.542 1.085 0.163 1.953c-0.651 1.41-1.898 2.224-3.254 3.2zM44.692 20.827c0-2.224-0.163-4.447 0.488-6.671 0.054-0.271 0.38-0.434 0.542-0.705 0.217 0.325 0.542 0.542 0.542 0.868 0 0.759 0 1.627-0.217 2.332l-1.085 4.23h-0.271zM31.512 24.949c0 1.681-0.108 3.146-0.759 4.502 0 0.108-0.108 0.217-0.163 0.271-0.38 0.217-0.759 0.651-1.085 0.542-0.542-0.054-0.434-0.705-0.38-1.085 0.38-1.573 1.139-2.929 2.386-4.23z"></path>
        </symbol>
        <symbol id="icon-taylor" viewBox="0 0 58 32">
            <path d="M58.133 32h-58.133v-32h58.133v32zM21.333 8.213l-0.693 0.16-2.4 0.16c-2.133 0-3.947 1.333-4.64 3.36-0.32 0.853-0.48 1.707-0.48 2.667v2.507c0 0.747-0.533 1.227-1.173 1.227-0.693 0-1.227-0.48-1.227-1.227v-9.707c0-0.16 0-0.373 0.267-0.373l2.88-0.373c0.907-0.107 1.813-0.267 2.667-0.533 1.089-0.391 1.855-1.414 1.855-2.617 0-0.168-0.015-0.333-0.044-0.493l0.003 0.017-1.493 0.32c-3.733 0.693-7.467 1.067-11.2 1.173l-2.24 0.053c-1.067 0.107-1.867 0.64-2.187 1.653-0.32 0.96-0.213 1.867 0.587 2.56 0.853 0.747 1.813 0.853 2.88 0.533h-0.107c-0.64-0.16-0.96-0.533-0.853-1.12 0.053-0.533 0.427-0.8 1.067-0.853l2.827-0.053h0.267v11.093c0 1.387-0.427 2.667-1.493 3.627l-0.48 0.373 0.427 0.533h0.107c1.387-1.227 3.040-1.707 4.8-1.973l1.973-0.373c0.699-0.233 1.282-0.66 1.7-1.218l0.006-0.009c0.644 0.42 1.433 0.67 2.28 0.67 1.201 0 2.284-0.502 3.052-1.308l0.002-0.002c0.853 0.533 1.707 0.8 2.667 0.693 0.96-0.053 1.76-0.533 2.453-1.173 0.587 0.427 1.173 0.747 1.867 0.853 0.747 0.107 1.387 0 2.133-0.213 0 1.173-0.267 2.133-0.96 2.987-0.64 0.853-1.493 1.387-2.56 1.28l-0.907-0.107 0.373 0.373c0.665 0.623 1.562 1.006 2.549 1.006 0.586 0 1.14-0.135 1.633-0.375l-0.022 0.010c1.208-0.623 2.090-1.733 2.394-3.063l0.006-0.031 0.32-1.92c1.28 0.373 2.453 0.16 3.52-0.693 1.653 1.493 3.413 1.6 5.333 0.32l0.107 0.16 0.213 0.16c0.671 0.65 1.587 1.051 2.597 1.051 0.367 0 0.721-0.053 1.056-0.151l-0.026 0.007c1.173-0.32 1.973-1.067 2.507-2.133 0.429-0.788 0.699-1.717 0.746-2.706l0.001-0.014v-1.493c0-0.32 0.213-0.533 0.533-0.693 0.64-0.373 1.44 0.107 1.44 0.96v4.533c0 0.8-0.427 1.227-1.28 1.28h-0.16v0.64c1.867 0.213 3.733 0.64 5.44 1.387 0.267-0.533 0.267-0.533-0.213-0.96-0.589-0.502-0.961-1.245-0.961-2.074 0-0.021 0-0.041 0.001-0.062l-0 0.003v-5.653c0-1.067 1.173-1.813 2.187-1.28 0.213 0.053 0.373 0.213 0.533 0.32l1.28-2.080c-1.067-1.067-2.56-1.387-3.893-0.693-0.16 0.053-0.267 0-0.373-0.053-0.307-0.298-0.726-0.482-1.189-0.482-0.375 0-0.721 0.121-1.003 0.326l0.005-0.003-0.533 0.587-0.533 0.533c-0.533 0.533-1.12 0.533-1.653 0.16l-1.387-1.12c-1.28-1.067-2.667-1.333-4.213-0.587-1.011 0.521-1.774 1.405-2.125 2.476l-0.009 0.030c-0.373 0.907-0.48 1.867-0.48 2.773v2.133c0 0.693-0.693 1.067-1.387 0.907-0.427-0.16-0.693-0.533-0.693-1.12v-13.387h-3.733v0.64c0.693 0.053 0.907 0.267 0.907 1.013v11.147c0 0.373-0.053 0.693-0.32 0.96-0.373 0.373-0.907 0.533-1.44 0.373-0.533-0.213-0.853-0.64-0.853-1.227v-6.827h-2.827v6.987c-0.053 0.533-0.373 0.853-0.853 1.067-0.427 0.107-0.907 0-1.227-0.373-0.267-0.267-0.32-0.64-0.32-0.96v-5.493c-0.107-0.907-1.067-1.6-1.973-1.547-0.931 0.084-1.654 0.861-1.654 1.806 0 0.021 0 0.042 0.001 0.063l-0-0.003c0.533-0.213 0.853-0.053 0.853 0.427v4.96c0 0.533-0.213 0.853-0.533 1.173-0.533 0.32-1.013 0.373-1.493 0.107-0.533-0.267-0.747-0.693-0.747-1.28v-7.147zM7.467 29.333v0.107c0.373-0.267 0.747-0.107 1.067 0l0.64 0.16c0.32 0.107 0.48-0.107 0.64-0.213l-1.44-0.373c1.227-0.427 1.6-0.907 1.493-1.867-0.107-0.747-0.587-1.067-1.493-1.12-0.8 0-1.387 0.373-1.547 1.067-0.16 0.96 0.16 1.493 1.173 1.867l-0.533 0.373zM49.76 27.36l0.693 1.067c0.213 0.427 0.427 0.533 0.907 0.373l-0.96-1.387 0.267-0.213c0.267-0.16 0.427-0.427 0.32-0.747s-0.32-0.373-0.64-0.373h-1.6l-0.107 0.053c0.48 0.053 0.373 0.427 0.373 0.693v1.28c0 0.267 0.053 0.587-0.32 0.693h1.227l0.053-0.107c-0.427 0-0.373-0.267-0.373-0.533v-1.867c0.533-0.107 0.747 0 0.8 0.373s-0.16 0.64-0.64 0.693zM34.453 26.827l0.053-0.267c0.107-0.267 0-0.48-0.267-0.48h-1.387c-0.64 0.107-1.067 0.64-1.067 1.28 0 0.747 0.32 1.28 1.067 1.493 0.164 0.036 0.353 0.057 0.547 0.057 0.381 0 0.743-0.080 1.070-0.223l-0.017 0.007c0.107 0 0.16-0.107 0.16-0.16l0.107-0.747h-1.12l0.213 0.107c0.213 0 0.213 0.16 0.213 0.32s0.053 0.373-0.16 0.427c-0.587 0.16-1.173-0.107-1.333-0.64-0.107-0.32-0.107-0.693-0.053-1.013 0.053-0.427 0.427-0.693 0.907-0.747 0.533 0 0.747 0.053 0.96 0.587h0.107zM37.6 26.080c0.16 0.16 0.373 0.267 0.373 0.373v1.547c-0.053 0.427-0.32 0.533-0.8 0.533-0.427 0-0.693-0.16-0.693-0.587v-1.173c0-0.267-0.107-0.533 0.32-0.64v-0.107h-1.28c0.533 0.213 0.32 0.587 0.32 0.907v1.067c0 0.373 0.213 0.64 0.533 0.747 0.213 0.107 0.533 0.16 0.747 0.16 0.747 0 1.067-0.373 1.067-1.067l0.053-0.747c0-0.373-0.107-0.8 0.32-1.067h-0.96zM10.613 26.080c0.427 0.107 0.373 0.427 0.373 0.693v1.28c0 0.373 0.16 0.64 0.533 0.747l0.693 0.107c0.693 0 1.067-0.32 1.067-1.067l0.053-0.96c0-0.32-0.107-0.64 0.373-0.8l-0.053-0.053h-1.013c0.427 0.32 0.427 0.32 0.427 0.853v1.013c0 0.48-0.267 0.64-0.747 0.64-0.533 0-0.747-0.16-0.747-0.64v-0.693c0-0.373-0.213-0.853 0.32-1.067h-1.28zM14.933 28.8c-0.427-0.107-0.267-0.373-0.16-0.64 0.107-0.32 0.373-0.16 0.533-0.16 0.64 0 0.693 0 0.747 0.64l-0.373 0.16h1.387c-0.427-0.213-0.48-0.64-0.64-1.067l-0.693-1.547-0.213-0.16-0.213 0.16c-0.427 0.907-0.533 1.92-1.227 2.667h0.853zM47.84 28.8h0.053c-0.48-0.16-0.533-0.64-0.64-0.96l-0.693-1.6c-0.053-0.107-0.16-0.213-0.267-0.213l-0.213 0.213-0.64 1.6c-0.16 0.373-0.213 0.747-0.693 0.96h0.96l-0.267-0.107c0.107-0.587 0.107-0.64 0.533-0.64 0.8 0 0.8 0 0.907 0.64l-0.32 0.16h1.28zM53.92 26.773c0.16-0.32 0.16-0.587 0-0.64-0.48-0.16-0.907-0.16-1.333 0-0.267 0.16-0.48 0.533-0.427 0.853 0 0.32 0.213 0.533 0.533 0.64 0.213 0 0.48 0.053 0.693 0.16 0.32 0.107 0.427 0.427 0.213 0.693s-0.533 0.267-0.747 0.213c-0.267-0.053-0.533-0.213-0.48-0.533l-0.053-0.107h-0.107l-0.053 0.693c0.587 0.267 1.173 0.32 1.707-0.053 0.32-0.267 0.373-0.533 0.32-0.96-0.053-0.373-0.32-0.48-0.64-0.533l-0.533-0.107c-0.267 0-0.427-0.213-0.373-0.427 0.053-0.16 0.213-0.373 0.373-0.427 0.427-0.107 0.693 0.053 0.8 0.48h0.107zM25.76 26.133h-2.613l0.053 0.587h0.107l0.107-0.32h0.747v1.707c0 0.267 0.107 0.64-0.373 0.747h1.333v-0.107c-0.373 0-0.373-0.213-0.373-0.48v-1.867c0.533-0.053 0.533-0.053 1.013 0.373v-0.64zM29.28 26.133h-0.053c-0.64 0.16-0.533 0.907-1.067 1.227-0.16-0.32-0.32-0.693-0.533-0.96-0.213-0.373-0.64-0.427-1.013-0.107 0.107 0.053 0.267 0.107 0.32 0.213l0.747 1.173c0.107 0.267 0.053 0.587 0 0.907l-0.267 0.213h1.333c-0.16-0.053-0.373-0.16-0.373-0.267 0-0.427-0.107-0.853 0.213-1.28l0.693-1.067zM42.613 26.347v1.92c0 0.32 0 0.533-0.32 0.64h1.28c-0.107-0.107-0.32-0.213-0.32-0.32v-2.133c0.213 0 0.427-0.107 0.587 0 0.16 0 0.213 0.213 0.373 0.373v-0.693h-2.613v0.587l0.107 0.053c0.107-0.533 0.48-0.427 0.853-0.427zM18.773 28.64v-1.813c0-0.267-0.053-0.533 0.32-0.64h-1.333c0.533 0.053 0.427 0.427 0.427 0.693v1.067c0 0.32 0.053 0.693-0.267 0.96h1.813c0.107 0 0.267-0.053 0.267-0.16l0.053-0.587c-0.32 0.053-0.107 0.533-0.533 0.48h-0.747zM21.013 26.133l-0.053 0.053c0.427 0.053 0.373 0.32 0.373 0.587v1.493c0 0.213 0 0.533-0.32 0.533v0.107h1.227c-0.107-0.107-0.267-0.213-0.267-0.32v-2.187l0.32-0.16v-0.107h-1.28zM39.413 28.8h1.28c-0.107-0.107-0.267-0.16-0.267-0.267v-2.187l0.32-0.16v-0.053h-1.28c0.427 0.107 0.32 0.48 0.32 0.747v1.28c0 0.267 0.107 0.533-0.373 0.587zM55.733 20.96c-0.373 0-0.64 0.267-0.64 0.693 0 0.373 0.267 0.64 0.64 0.64s0.693-0.32 0.693-0.64c0-0.373-0.32-0.693-0.693-0.693z"></path>
            <path d="M21.333 8.213v7.093c0 0.533 0.267 1.013 0.8 1.28s1.013 0.213 1.44-0.107c0.373-0.32 0.533-0.693 0.533-1.173 0.053-1.6 0.053-3.307 0-4.96 0-0.533-0.213-0.64-0.8-0.427-0.053-0.96 0.693-1.76 1.6-1.867 1.013-0.053 1.92 0.64 2.027 1.6v5.44c0 0.32 0.053 0.693 0.32 0.96 0.32 0.32 0.8 0.533 1.227 0.32 0.533-0.16 0.8-0.48 0.853-1.013v-6.987h2.827v6.773c0 0.64 0.32 1.067 0.853 1.28 0.533 0.16 1.067 0 1.44-0.373 0.267-0.267 0.32-0.587 0.32-0.96v-11.2c0-0.693-0.213-0.907-0.907-0.96v-0.64h3.733v13.387c0 0.533 0.267 0.96 0.693 1.067 0.693 0.267 1.333-0.16 1.387-0.907v-2.080c0-0.907 0.107-1.867 0.427-2.773 0.371-1.109 1.154-1.996 2.162-2.495l0.025-0.011c1.547-0.747 2.933-0.427 4.267 0.533l1.333 1.173c0.533 0.373 1.12 0.32 1.6-0.107l0.533-0.533 0.533-0.64c0.747-0.533 1.6-0.427 2.24 0.16 0.107 0.107 0.213 0.107 0.373 0 0.425-0.218 0.928-0.346 1.461-0.346 0.966 0 1.834 0.421 2.43 1.090l0.003 0.003-1.227 2.080-0.533-0.32c-1.067-0.533-2.24 0.16-2.293 1.28v5.6c0 0.853 0.373 1.6 1.067 2.133 0.427 0.373 0.427 0.373 0.16 0.96-1.59-0.708-3.435-1.2-5.37-1.381l-0.070-0.005v-0.64h0.16c0.853-0.053 1.227-0.48 1.227-1.28v-4.533c0-0.853-0.693-1.333-1.44-0.96-0.267 0.16-0.427 0.373-0.427 0.693l-0.053 1.493c-0.039 1.021-0.31 1.97-0.763 2.807l0.017-0.034c-0.501 1.014-1.396 1.769-2.479 2.073l-0.028 0.007c-0.308 0.092-0.663 0.145-1.030 0.145-1.010 0-1.926-0.401-2.598-1.052l0.001 0.001-0.213-0.16-0.16-0.16c-1.867 1.333-3.627 1.173-5.333-0.32-1.013 0.853-2.133 1.067-3.467 0.693l-0.32 1.92c-0.373 1.333-1.067 2.453-2.4 3.093-0.471 0.231-1.025 0.366-1.611 0.366-0.986 0-1.884-0.383-2.551-1.007l0.002 0.002-0.373-0.373 0.907 0.107c1.067 0.107 1.92-0.427 2.56-1.28 0.573-0.726 0.919-1.654 0.919-2.663 0-0.114-0.004-0.226-0.013-0.338l0.001 0.015c-0.693 0.213-1.333 0.32-2.080 0.213-0.717-0.136-1.348-0.436-1.875-0.86l0.008 0.006c-0.71 0.74-1.707 1.2-2.811 1.2-0.846 0-1.629-0.27-2.267-0.728l0.012 0.008c-0.771 0.828-1.868 1.343-3.085 1.343-0.834 0-1.611-0.242-2.265-0.66l0.017 0.010c-0.533 0.533-1.067 1.067-1.76 1.227l-1.973 0.373c-1.76 0.267-3.413 0.747-4.8 1.92h-0.107l-0.427-0.48 0.48-0.373c1.067-1.013 1.547-2.24 1.547-3.627v-11.093h-0.32l-2.827 0.053c-0.64 0-1.013 0.32-1.067 0.853-0.107 0.533 0.213 0.96 0.853 1.067l0.107 0.107c-1.067 0.267-2.027 0.16-2.88-0.533-0.747-0.8-0.907-1.707-0.587-2.667 0.32-1.013 1.12-1.547 2.187-1.6 0.747-0.107 1.493-0.053 2.24-0.107 3.733-0.053 7.467-0.48 11.2-1.173l1.493-0.32c0.213 1.227-0.427 2.667-1.813 3.093-0.853 0.267-1.76 0.427-2.667 0.533l-2.88 0.373c-0.267 0-0.267 0.213-0.267 0.373v9.76c0 0.747 0.533 1.227 1.227 1.227 0.64 0 1.173-0.533 1.173-1.227v-2.507c0-0.96 0.16-1.813 0.48-2.667 0.68-1.954 2.496-3.335 4.637-3.36l0.003-0 2.4-0.16 0.747-0.16z"></path>
            <path d="M42.453 13.973l0.053 0.747c0 0.64 0.107 1.28 0.48 1.867 0.533 0.747 1.387 0.747 1.92 0.053l0.373-0.747c0.267-1.12 0.267-2.24 0.107-3.36-0.107-0.427-0.267-0.853-0.48-1.173-0.48-0.693-1.387-0.693-1.867 0-0.213 0.267-0.32 0.587-0.373 0.907l-0.213 1.707zM18.56 11.2c-1.067-0.053-1.973 0.533-2.347 1.547-0.373 0.907-0.427 1.92-0.32 2.88 0.053 0.373 0.213 0.8 0.427 1.173 0.48 0.8 1.6 0.747 2.027 0 0.16-0.267 0.213-0.64 0.213-0.96v-4.693zM7.467 29.387l0.533-0.373c-1.013-0.373-1.333-0.907-1.173-1.813 0.16-0.747 0.747-1.173 1.547-1.12 0.907 0 1.387 0.373 1.493 1.12 0.107 0.96-0.267 1.44-1.493 1.867l1.44 0.373c-0.16 0.107-0.32 0.32-0.64 0.213l-0.64-0.16c-0.32-0.107-0.693-0.267-1.067 0v-0.107zM9.28 27.52c-0.053-0.213-0.053-0.533-0.16-0.747-0.16-0.32-0.373-0.533-0.747-0.533s-0.693 0.213-0.8 0.533c-0.213 0.533-0.16 1.067 0.053 1.547 0.16 0.32 0.48 0.427 0.8 0.427 0.373 0 0.587-0.213 0.693-0.533 0.107-0.213 0.107-0.427 0.16-0.693zM49.76 27.413c0.48-0.053 0.693-0.32 0.64-0.693 0-0.32-0.267-0.48-0.8-0.373v1.92c0 0.213-0.053 0.533 0.373 0.48l-0.053 0.107h-1.227c0.373-0.107 0.267-0.427 0.32-0.693v-1.28c0-0.267 0.107-0.64-0.373-0.693l0.053-0.053h1.653c0.32 0 0.533 0.053 0.64 0.373s-0.053 0.533-0.32 0.747l-0.267 0.213 0.96 1.387c-0.48 0.107-0.693 0.053-0.907-0.373l-0.693-1.067zM34.453 26.933h-0.107c-0.213-0.533-0.427-0.693-0.96-0.64-0.48 0-0.853 0.32-0.907 0.747v1.013c0.213 0.533 0.8 0.8 1.387 0.64 0.213-0.053 0.16-0.267 0.16-0.427s0-0.32-0.213-0.32c-0.053 0-0.16 0-0.213-0.107h1.067l-0.107 0.747c0 0.053-0.053 0.16-0.16 0.16-0.31 0.137-0.672 0.217-1.053 0.217-0.194 0-0.383-0.021-0.565-0.060l0.018 0.003c-0.747-0.213-1.067-0.747-1.067-1.493 0-0.64 0.427-1.173 1.067-1.28h1.387c0.267 0 0.373 0.213 0.267 0.533v0.267zM37.6 26.133l0.96-0.053c-0.427 0.267-0.267 0.693-0.32 1.067v0.747c0 0.693-0.373 1.067-1.067 1.067-0.32 0-0.533 0-0.8-0.16-0.32-0.107-0.533-0.373-0.533-0.747v-1.067c0-0.32 0.16-0.693-0.32-0.907h1.28v0.107c-0.427 0.053-0.32 0.373-0.32 0.64v1.173c0 0.427 0.267 0.587 0.693 0.587 0.48 0 0.747-0.107 0.747-0.533v-1.547c0-0.107-0.16-0.213-0.32-0.373zM10.667 26.133h1.227c-0.533 0.213-0.32 0.693-0.32 1.067v0.747c0 0.48 0.267 0.693 0.747 0.64 0.533 0 0.693-0.213 0.747-0.64v-1.013c0-0.533 0-0.533-0.427-0.8l1.013-0.053 0.053 0.053c-0.48 0.16-0.32 0.533-0.373 0.8v1.013c-0.053 0.64-0.427 1.067-1.12 1.013-0.267 0-0.533 0-0.747-0.107-0.32-0.107-0.533-0.373-0.533-0.747v-1.28c0-0.267 0.107-0.587-0.373-0.64l0.053-0.107zM14.933 28.853h-0.853c0.64-0.693 0.8-1.707 1.227-2.613l0.213-0.16 0.213 0.16 0.693 1.6c0.16 0.373 0.213 0.8 0.64 1.067h-1.387l0.373-0.213c-0.053-0.587-0.107-0.64-0.693-0.64-0.213 0-0.48-0.16-0.587 0.16-0.107 0.267-0.267 0.533 0.16 0.64zM15.36 26.773l-0.427 1.067h0.853l-0.427-1.067zM47.84 28.907h-1.227v-0.107l0.267-0.16c-0.107-0.64-0.107-0.64-0.907-0.64-0.427 0-0.427 0-0.533 0.64l0.267 0.107h-0.907c0.48-0.16 0.533-0.533 0.693-0.853l0.64-1.6c0-0.16 0.16-0.267 0.213-0.267 0.107 0 0.213 0.107 0.267 0.213l0.693 1.6c0.16 0.32 0.16 0.8 0.64 0.907v0.107zM46.187 26.88h-0.107l-0.373 0.907h0.853l-0.373-0.907zM53.867 26.827v-0.053c-0.16-0.427-0.427-0.587-0.853-0.48-0.16 0.053-0.32 0.267-0.373 0.427 0 0.213 0.107 0.373 0.32 0.427l0.587 0.107c0.32 0.053 0.533 0.16 0.64 0.533 0.053 0.373 0 0.693-0.32 0.96-0.533 0.373-1.067 0.32-1.707 0.053l0.053-0.693h0.107l0.053 0.16c0 0.267 0.213 0.427 0.48 0.48s0.533 0 0.747-0.213c0.065-0.075 0.105-0.173 0.105-0.281 0-0.197-0.134-0.363-0.316-0.412l-0.003-0.001c-0.213-0.107-0.48-0.107-0.693-0.16-0.32-0.107-0.533-0.32-0.533-0.64 0-0.373 0.16-0.693 0.427-0.8 0.427-0.213 0.853-0.213 1.28-0.053 0.213 0 0.213 0.32 0 0.64zM25.76 26.133v0.64c-0.533-0.427-0.533-0.427-1.013-0.373v1.867c0 0.267 0 0.533 0.427 0.533l-0.053 0.053h-1.333c0.533-0.107 0.373-0.48 0.373-0.747v-1.707h-0.747l-0.107 0.373h-0.107v-0.64h2.56zM29.333 26.133l-0.747 1.12c-0.32 0.427-0.267 0.853-0.213 1.28 0 0.107 0.213 0.213 0.373 0.32h-1.333v-0.053l0.32-0.213v-0.907c-0.213-0.427-0.533-0.8-0.8-1.173 0-0.107-0.213-0.16-0.32-0.213 0.373-0.32 0.8-0.32 1.067 0.107l0.533 0.96c0.427-0.32 0.373-1.067 1.013-1.28l0.053 0.107zM42.667 26.347c-0.427 0-0.8-0.16-0.907 0.427h-0.16v-0.64h2.56v0.64c-0.16-0.16-0.213-0.32-0.373-0.373-0.16-0.107-0.373 0-0.587 0v2.133c0 0.107 0.213 0.213 0.32 0.32h-1.28c0.32-0.107 0.373-0.32 0.32-0.64v-1.867zM18.773 28.64h0.8c0.373 0 0.16-0.427 0.48-0.533l-0.053 0.64c0 0.107-0.16 0.16-0.267 0.16h-1.813c0.32-0.267 0.213-0.64 0.267-0.96v-1.067c0-0.267 0.053-0.64-0.427-0.64l0.053-0.107h1.28v0.053c-0.373 0.107-0.32 0.373-0.32 0.64v1.813zM21.013 26.133h1.227v0.053l-0.32 0.16v2.133c0 0.16 0.213 0.267 0.32 0.373h-1.227v-0.053c0.32-0.107 0.32-0.373 0.32-0.587v-1.44c0-0.267 0.053-0.533-0.373-0.533l0.053-0.107zM39.467 28.8c0.427-0.053 0.32-0.373 0.32-0.64v-1.28c0-0.267 0.107-0.64-0.32-0.747h1.28v0.053l-0.32 0.16v2.133c0 0.16 0.16 0.213 0.267 0.373h-1.227v-0.107z"></path>
            <path d="M42.453 13.973l0.213-1.707c0-0.32 0.16-0.64 0.373-0.907 0.533-0.693 1.387-0.693 1.867 0 0.213 0.32 0.373 0.747 0.48 1.173 0.16 1.067 0.16 2.24-0.107 3.36-0.080 0.286-0.208 0.535-0.377 0.751l0.004-0.005c-0.533 0.693-1.44 0.693-1.92-0.053-0.373-0.533-0.427-1.227-0.48-1.867v-0.747h-0.053zM18.56 11.2v4.64c0 0.32-0.053 0.693-0.213 0.96-0.48 0.747-1.6 0.8-2.027 0-0.213-0.373-0.373-0.8-0.427-1.173-0.107-0.96 0-1.973 0.32-2.88 0.373-0.96 1.28-1.6 2.347-1.6zM9.28 27.52c0 0.267-0.053 0.533-0.16 0.693-0.107 0.32-0.32 0.533-0.693 0.533-0.32 0-0.64-0.107-0.8-0.427-0.213-0.533-0.267-1.013-0.053-1.547 0.107-0.32 0.427-0.533 0.8-0.533s0.587 0.213 0.747 0.533l0.16 0.747zM15.36 26.773l0.427 1.067h-0.853l0.427-1.067zM46.187 26.88l0.373 0.907h-0.853l0.373-0.907h0.107zM55.733 21.013c0.016-0.002 0.035-0.003 0.053-0.003 0.295 0 0.533 0.239 0.533 0.533 0 0.001 0 0.002 0 0.003v-0c0 0.373-0.213 0.693-0.533 0.693-0.339 0-0.613-0.275-0.613-0.613s0.275-0.613 0.613-0.613v0zM55.947 21.92h0.107l-0.48-0.64v0.64h0.053l0.107-0.32 0.213 0.32z"></path>
        </symbol>
        <symbol id="icon-Smooth-Browsing" viewBox="0 0 32 32">
            <path d="M18.96 2.96c0.92-0.92 2.22-1.3 3.7-1.3h2.67c1.5 0 2.79 0.38 3.71 1.3s1.3 2.22 1.3 3.7v2.67c0 1.5-0.38 2.79-1.3 3.71s-2.22 1.3-3.7 1.3h-2.67c-1.5 0-2.79-0.38-3.71-1.3s-1.3-2.22-1.3-3.7v-2.68c0-1.5 0.38-2.79 1.3-3.71zM20.37 4.37c-0.4 0.42-0.7 1.12-0.7 2.3v2.66c0 1.18 0.3 1.88 0.7 2.3 0.42 0.4 1.12 0.7 2.3 0.7h2.66c1.18 0 1.88-0.3 2.3-0.7 0.41-0.42 0.7-1.12 0.7-2.3v-2.66c0-1.18-0.29-1.88-0.7-2.3-0.42-0.4-1.12-0.7-2.3-0.7h-2.66c-1.18 0-1.88 0.3-2.3 0.7zM2.96 18.96c0.92-0.92 2.22-1.3 3.7-1.3h2.67c1.5 0 2.79 0.38 3.71 1.3s1.3 2.22 1.3 3.7v2.67c0 1.5-0.38 2.79-1.3 3.71s-2.22 1.3-3.7 1.3h-2.68c-1.49 0-2.79-0.38-3.71-1.3s-1.3-2.22-1.3-3.7v-2.67c0-1.5 0.38-2.79 1.3-3.71zM4.37 20.37c-0.4 0.42-0.7 1.12-0.7 2.3v2.66c0 1.18 0.3 1.88 0.7 2.3 0.42 0.4 1.12 0.7 2.3 0.7h2.66c1.18 0 1.88-0.3 2.3-0.7 0.4-0.42 0.7-1.12 0.7-2.3v-2.66c0-1.18-0.29-1.88-0.7-2.3-0.42-0.4-1.12-0.7-2.3-0.7h-2.66c-1.18 0-1.88 0.3-2.3 0.7zM8 3.67c-2.391 0-4.33 1.939-4.33 4.33s1.939 4.33 4.33 4.33v0c2.391 0 4.33-1.939 4.33-4.33s-1.939-4.33-4.33-4.33v0zM1.67 8c0-3.496 2.834-6.33 6.33-6.33s6.33 2.834 6.33 6.33v0c0 3.496-2.834 6.33-6.33 6.33s-6.33-2.834-6.33-6.33v0zM24 19.67c-2.391 0-4.33 1.939-4.33 4.33s1.939 4.33 4.33 4.33v0c2.391 0 4.33-1.939 4.33-4.33s-1.939-4.33-4.33-4.33v0zM17.67 24c0-3.496 2.834-6.33 6.33-6.33s6.33 2.834 6.33 6.33v0c0 3.496-2.834 6.33-6.33 6.33s-6.33-2.834-6.33-6.33v0z"></path>
        </symbol>
        <symbol id="icon-EASY-Delivery" viewBox="0 0 32 32">
            <path d="M2.47 4.91c1.105-1.947 3.164-3.24 5.525-3.24 0.002 0 0.004 0 0.006 0h12c0.552 0 1 0.448 1 1v0 13.33c0 2.027-1.643 3.67-3.67 3.67v0h-1.33c-0.552 0-1-0.448-1-1s0.448-1 1-1v0h1.33c0.92 0 1.67-0.76 1.67-1.67v-12.33h-11c-1.62 0-3.040 0.9-3.78 2.22-0.175 0.308-0.501 0.513-0.875 0.513-0.554 0-1.003-0.449-1.003-1.003 0-0.18 0.047-0.349 0.13-0.495l-0.003 0.005z"></path>
            <path d="M19 6.67c0-0.552 0.448-1 1-1v0h2.45c1.33 0 2.53 0.71 3.19 1.84l2.28 4c0.081 0.141 0.128 0.31 0.128 0.49 0 0.552-0.447 0.999-0.998 1h-1.72c-0.18 0.005-0.325 0.15-0.33 0.329v4c0 0.18 0.15 0.34 0.33 0.34h4c0.552 0 1 0.448 1 1v0 4c0 2.761-2.239 5-5 5v0h-1.33c-0.552 0-1-0.448-1-1v0c0-0.92-0.75-1.67-1.67-1.67-0.91 0-1.66 0.75-1.66 1.67 0 0.552-0.448 1-1 1v0h-5.34c-0.552 0-1-0.448-1-1v0c0-0.92-0.75-1.67-1.66-1.67-0.92 0-1.67 0.75-1.67 1.67 0 0.552-0.448 1-1 1v0h-1.33c-2.761 0-5-2.239-5-5v0c0-0.552 0.448-1 1-1s1 0.448 1 1v0c0 1.657 1.343 3 3 3v0h0.47c0.469-1.53 1.869-2.623 3.525-2.623s3.056 1.093 3.518 2.597l0.007 0.026h3.62c0.469-1.53 1.869-2.623 3.525-2.623s3.056 1.093 3.518 2.597l0.007 0.026h0.47c1.657 0 3-1.343 3-3v0-3h-3c-1.288-0.006-2.33-1.051-2.33-2.34 0 0 0-0 0-0v0-4c0.006-1.285 1.045-2.324 2.329-2.33h0.001l-1.42-2.48c-0.3-0.53-0.86-0.85-1.46-0.85h-1.45v8.33c0 2.027-1.643 3.67-3.67 3.67v0h-1.33c-0.552 0-1-0.448-1-1s0.448-1 1-1v0h1.33c0.92 0 1.67-0.76 1.67-1.67v-9.33z"></path>
            <path d="M10.67 25c-0.039-0.003-0.084-0.005-0.129-0.005-0.922 0-1.67 0.748-1.67 1.67s0.748 1.67 1.67 1.67c0.045 0 0.090-0.002 0.135-0.005l-0.006 0c0.865-0.069 1.541-0.788 1.541-1.665s-0.676-1.596-1.535-1.665l-0.006-0zM7 26.67c-0.003-0.057-0.005-0.124-0.005-0.192 0-2.027 1.643-3.67 3.67-3.67s3.67 1.643 3.67 3.67c0 0.067-0.002 0.134-0.005 0.201l0-0.009c-0.105 1.943-1.705 3.479-3.665 3.479s-3.56-1.536-3.665-3.469l-0-0.009zM21.33 25c-0.039-0.003-0.084-0.005-0.129-0.005-0.922 0-1.67 0.748-1.67 1.67s0.748 1.67 1.67 1.67c0.045 0 0.090-0.002 0.135-0.005l-0.006 0c0.865-0.069 1.541-0.788 1.541-1.665s-0.676-1.596-1.535-1.665l-0.006-0zM17.67 26.67c-0.003-0.057-0.005-0.124-0.005-0.192 0-2.027 1.643-3.67 3.67-3.67s3.67 1.643 3.67 3.67c0 0.067-0.002 0.134-0.005 0.201l0-0.009c-0.105 1.943-1.705 3.479-3.665 3.479s-3.56-1.536-3.665-3.469l-0-0.009zM25.33 13c-0.18 0.005-0.325 0.15-0.33 0.329v4c0 0.18 0.15 0.34 0.33 0.34h3v-1.4l-1.86-3.27h-1.14zM23 13.33c0.006-1.285 1.045-2.324 2.329-2.33h1.721c0.36 0 0.7 0.2 0.87 0.5l2.28 4c0.082 0.142 0.13 0.312 0.13 0.493 0 0.002 0 0.005-0 0.007v-0 2.67c0 0.552-0.448 1-1 1v0h-4c-1.288-0.006-2.33-1.051-2.33-2.34 0 0 0-0 0-0v0-4zM1.67 10.67c0-0.552 0.448-1 1-1v0h8c0.552 0 1 0.448 1 1s-0.448 1-1 1v0h-8c-0.552 0-1-0.448-1-1v0zM1.67 14.67c0-0.552 0.448-1 1-1v0h5.33c0.552 0 1 0.448 1 1s-0.448 1-1 1v0h-5.33c-0.552 0-1-0.448-1-1v0zM1.67 18.67c0-0.552 0.448-1 1-1v0h2.66c0.552 0 1 0.448 1 1s-0.448 1-1 1v0h-2.66c-0.552 0-1-0.448-1-1v0z"></path>
        </symbol>
        <symbol id="icon-SwiFT-PAYMENTS" viewBox="0 0 32 32">
            <path d="M8.35 11.33c-2.21 0-4.020 1.8-4.020 4.020v4.1c0.69-0.281 1.49-0.444 2.328-0.444 3.496 0 6.33 2.834 6.33 6.33 0 1.1-0.281 2.135-0.775 3.037l0.017-0.033h11.42c2.21 0 4.020-1.81 4.020-4.020v-0.59h-1.54c-1.88 0-3.7-1.37-3.87-3.4-0.010-0.102-0.016-0.22-0.016-0.34 0-1.030 0.423-1.961 1.105-2.629l0.001-0.001c0.68-0.7 1.61-1.1 2.62-1.1h1.7v-0.91c0-2.21-1.8-4.020-4.020-4.020h-15.3zM2.33 15.35c0-3.32 2.7-6.020 6.020-6.020h15.3c3.32 0 6.020 2.7 6.020 6.020v1.92c0 0.552-0.448 1-1 1v0h-2.7c-0.48 0-0.9 0.18-1.2 0.5l-0.020 0.010c-0.35 0.35-0.55 0.84-0.5 1.37 0.070 0.85 0.88 1.58 1.88 1.58h2.54c0.552 0 1 0.448 1 1v0 1.59c0 3.31-2.7 6.010-6.020 6.010h-13.48c-0.548-0.006-0.99-0.451-0.99-1 0-0.304 0.135-0.576 0.349-0.759l0.001-0.001c0.32-0.27 0.61-0.61 0.83-1l0.020-0.010c0.382-0.633 0.609-1.397 0.609-2.214 0-2.391-1.939-4.33-4.33-4.33-1.024 0-1.966 0.356-2.707 0.951l0.009-0.007c-0.17 0.139-0.39 0.223-0.63 0.223-0.552 0-1-0.448-1-1 0-0.005 0-0.009 0-0.014v0.001-5.82z"></path>
            <path d="M18.8 5.27c0-0.003 0-0.005 0-0.008 0-0.845-0.685-1.53-1.53-1.53-0.194 0-0.38 0.036-0.55 0.102l0.010-0.004-10.59 4c-1.062 0.414-1.8 1.428-1.8 2.615 0 0.002 0 0.003 0 0.005v-0 6.1c0 0.552-0.448 1-1 1s-1-0.448-1-1v0-6.1c0-2 1.22-3.78 3.1-4.5l10.58-4c0.371-0.145 0.801-0.229 1.25-0.229 1.95 0 3.53 1.58 3.53 3.53 0 0.007-0 0.013-0 0.020v-0.001 5.060c0 0.552-0.448 1-1 1s-1-0.448-1-1v0-5.060zM25.97 18.27c-0.48 0-0.9 0.18-1.2 0.5l-0.020 0.010c-0.35 0.35-0.55 0.84-0.5 1.37 0.070 0.85 0.88 1.58 1.88 1.58h2.6c0.192-0.011 0.345-0.167 0.35-0.36v-2.741c-0.005-0.197-0.163-0.355-0.36-0.36h-2.75zM23.34 17.36c0.69-0.7 1.62-1.1 2.63-1.1h2.81c1.278 0.039 2.3 1.085 2.3 2.369 0 0 0 0.001 0 0.001v-0 2.74c-0.006 1.294-1.047 2.343-2.338 2.36l-0.002 0h-2.6c-1.89 0-3.71-1.37-3.88-3.4-0.011-0.105-0.017-0.226-0.017-0.349 0-1.026 0.419-1.953 1.096-2.62l0-0z"></path>
            <path d="M8.33 16c0-0.552 0.448-1 1-1v0h9.34c0.552 0 1 0.448 1 1s-0.448 1-1 1v0h-9.34c-0.552 0-1-0.448-1-1v0zM6.67 21c-1.020 0-1.96 0.36-2.71 0.96-0.994 0.795-1.625 2.007-1.625 3.367 0 0.826 0.233 1.597 0.636 2.252l-0.011-0.019c0.761 1.277 2.135 2.119 3.706 2.119 1.562 0 2.93-0.833 3.683-2.080l0.011-0.019 0.020-0.020c0.388-0.636 0.618-1.406 0.618-2.23 0-2.387-1.932-4.323-4.318-4.33h-0.001zM2.71 20.4c1.115-0.998 2.596-1.608 4.219-1.608 3.502 0 6.34 2.838 6.34 6.34 0 2.112-1.033 3.983-2.621 5.135l-0.018 0.013c-1.039 0.775-2.349 1.241-3.767 1.241-3.502 0-6.34-2.838-6.34-6.34 0-1.909 0.844-3.622 2.18-4.784l0.008-0.007z"></path>
            <path d="M9.48 23.35c0.165 0.178 0.267 0.417 0.267 0.68 0 0.288-0.122 0.547-0.316 0.73l-0.001 0-2.84 2.63c-0.178 0.165-0.417 0.266-0.679 0.266-0.278 0-0.529-0.113-0.71-0.296l-1.32-1.32c-0.18-0.181-0.291-0.43-0.291-0.705 0-0.553 0.448-1.001 1.001-1.001 0.278 0 0.529 0.113 0.71 0.296l0 0 0.63 0.64 2.14-1.98c0.177-0.163 0.414-0.262 0.675-0.262 0.29 0 0.552 0.124 0.735 0.321l0.001 0.001z"></path>
        </symbol>
        <symbol id="icon-mail" viewBox="0 0 32 32">
            <path d="M4 7c-0.55 0-1 0.45-1 1v1.381l10.781 8.85c1.294 1.063 3.15 1.063 4.444 0l10.775-8.85v-1.381c0-0.55-0.45-1-1-1h-24zM3 13.262v10.738c0 0.55 0.45 1 1 1h24c0.55 0 1-0.45 1-1v-10.738l-8.875 7.287c-2.4 1.969-5.856 1.969-8.25 0l-8.875-7.287zM0 8c0-2.206 1.794-4 4-4h24c2.206 0 4 1.794 4 4v16c0 2.206-1.794 4-4 4h-24c-2.206 0-4-1.794-4-4v-16z"></path>
        </symbol>
        <symbol id="icon-location" viewBox="0 0 33 32">
            <path d="M16.457 8.667c0.884 0 1.732 0.351 2.357 0.976s0.976 1.473 0.976 2.357c0 0.438-0.086 0.871-0.254 1.276s-0.413 0.772-0.723 1.081c-0.31 0.309-0.677 0.555-1.081 0.723s-0.838 0.254-1.276 0.254c-0.884 0-1.732-0.351-2.357-0.976s-0.976-1.473-0.976-2.357c0-0.884 0.351-1.732 0.976-2.357s1.473-0.976 2.357-0.976zM16.457 2.667c2.475 0 4.849 0.983 6.6 2.734s2.734 4.124 2.734 6.6c0 7-9.333 17.333-9.333 17.333s-9.333-10.333-9.333-17.333c0-2.475 0.983-4.849 2.734-6.6s4.124-2.734 6.6-2.734zM16.457 5.333c-1.768 0-3.464 0.702-4.714 1.953s-1.953 2.946-1.953 4.714c0 1.333 0 4 6.667 12.947 6.667-8.947 6.667-11.613 6.667-12.947 0-1.768-0.702-3.464-1.953-4.714s-2.946-1.953-4.714-1.953z"></path>
        </symbol>
        <symbol id="icon-Facebook" viewBox="0 0 30 32">
            <path d="M16.064 26.021v-9.495h3.074l0.46-3.701h-3.535v-2.363c0-1.071 0.287-1.802 1.769-1.802l1.89-0.001v-3.31c-0.327-0.045-1.449-0.146-2.754-0.146-2.725 0-4.591 1.724-4.591 4.891v2.729h-3.082v3.701h3.082v9.495l3.686-0z"></path>
        </symbol>
        <symbol id="icon-x" viewBox="0 0 32 32">
            <path d="M24.325 3h4.411l-9.636 11.013 11.336 14.987h-8.876l-6.952-9.089-7.955 9.089h-4.413l10.307-11.78-10.875-14.22h9.101l6.284 8.308zM22.777 26.36h2.444l-15.776-20.859h-2.623z"></path>
        </symbol>
        <symbol id="icon-Instagram" viewBox="0 0 30 32">
            <path d="M11.922 15.612c0-1.796 1.404-3.253 3.137-3.253s3.137 1.456 3.137 3.253c0 1.796-1.405 3.253-3.137 3.253s-3.137-1.457-3.137-3.253zM10.226 15.612c0 2.767 2.164 5.010 4.833 5.010s4.833-2.243 4.833-5.010c0-2.767-2.164-5.010-4.833-5.010s-4.833 2.243-4.833 5.010zM18.954 10.403c-0 0.232 0.066 0.458 0.19 0.651s0.3 0.343 0.507 0.431c0.206 0.089 0.433 0.112 0.653 0.067s0.42-0.157 0.578-0.32c0.158-0.164 0.266-0.372 0.309-0.599s0.021-0.463-0.064-0.677c-0.085-0.214-0.23-0.397-0.416-0.526s-0.404-0.197-0.627-0.198h-0c-0.299 0-0.587 0.123-0.798 0.343s-0.331 0.517-0.331 0.827v0zM11.257 23.555c-0.918-0.043-1.416-0.202-1.748-0.336-0.439-0.177-0.753-0.389-1.083-0.73s-0.534-0.666-0.704-1.122c-0.129-0.344-0.282-0.861-0.324-1.812-0.046-1.029-0.055-1.337-0.055-3.943s0.010-2.914 0.055-3.943c0.042-0.951 0.196-1.467 0.324-1.812 0.171-0.456 0.375-0.781 0.704-1.122s0.642-0.553 1.083-0.73c0.331-0.134 0.83-0.292 1.748-0.336 0.992-0.047 1.29-0.057 3.802-0.057s2.811 0.010 3.803 0.057c0.918 0.043 1.416 0.203 1.748 0.336 0.439 0.177 0.753 0.389 1.083 0.73s0.533 0.667 0.704 1.122c0.129 0.344 0.282 0.861 0.324 1.812 0.046 1.029 0.055 1.338 0.055 3.943s-0.009 2.914-0.055 3.943c-0.042 0.951-0.195 1.468-0.324 1.812-0.171 0.456-0.375 0.781-0.704 1.122s-0.643 0.553-1.083 0.73c-0.331 0.134-0.83 0.292-1.748 0.336-0.992 0.047-1.29 0.057-3.803 0.057s-2.811-0.009-3.802-0.057v0zM11.179 5.914c-1.002 0.047-1.687 0.212-2.285 0.453-0.619 0.249-1.143 0.583-1.667 1.125s-0.845 1.087-1.086 1.729c-0.233 0.62-0.392 1.33-0.437 2.369-0.046 1.040-0.057 1.373-0.057 4.023s0.011 2.982 0.057 4.023c0.046 1.039 0.205 1.748 0.437 2.368 0.24 0.642 0.562 1.187 1.086 1.728s1.048 0.876 1.667 1.125c0.599 0.241 1.283 0.406 2.285 0.453 1.004 0.047 1.324 0.059 3.88 0.059s2.877-0.011 3.88-0.059c1.002-0.047 1.686-0.212 2.284-0.453 0.619-0.25 1.143-0.583 1.667-1.125s0.845-1.087 1.086-1.728c0.233-0.62 0.392-1.33 0.437-2.368 0.046-1.041 0.056-1.373 0.056-4.023s-0.011-2.982-0.056-4.023c-0.046-1.039-0.205-1.749-0.437-2.369-0.241-0.642-0.563-1.185-1.086-1.729s-1.048-0.876-1.667-1.125c-0.599-0.241-1.283-0.407-2.284-0.453-1.004-0.047-1.324-0.059-3.88-0.059s-2.877 0.011-3.881 0.059z"></path>
        </symbol>
        <symbol id="icon-circle-chevron-up-solid" viewBox="0 0 32 32">
            <path d="M16 32c8.837 0 16-7.163 16-16s-7.163-16-16-16v0c-8.837 0-16 7.163-16 16s7.163 16 16 16v0zM23.563 16.938c0.587 0.587 0.587 1.538 0 2.119s-1.538 0.587-2.119 0l-5.438-5.438-5.438 5.438c-0.588 0.587-1.537 0.587-2.119 0s-0.588-1.538 0-2.119l6.487-6.5c0.588-0.588 1.538-0.588 2.119 0l6.506 6.5z"></path>
        </symbol>
    </defs>
</svg>
