<svg xmlns="http://www.w3.org/2000/svg" width="32" height="32" fill="none"><path fill="#A4A4A4" fill-rule="evenodd" d="M18.96 2.96c.92-.92 2.22-1.3 3.7-1.3h2.67c1.5 0 2.79.38 3.71 1.3.92.92 1.3 2.22 1.3 3.7v2.67c0 1.5-.38 2.79-1.3 3.71-.92.92-2.22 1.3-3.7 1.3h-2.67c-1.5 0-2.79-.38-3.71-1.3-.92-.92-1.3-2.22-1.3-3.7V6.66c0-1.5.38-2.79 1.3-3.71Zm1.41 1.41c-.4.42-.7 1.12-.7 2.3v2.66c0 1.18.3 1.88.7 2.3.42.4 1.12.7 2.3.7h2.66c1.18 0 1.88-.3 2.3-.7.41-.42.7-1.12.7-2.3V6.67c0-1.18-.29-1.88-.7-2.3-.42-.4-1.12-.7-2.3-.7h-2.66c-1.18 0-1.88.3-2.3.7ZM2.96 18.96c.92-.92 2.22-1.3 3.7-1.3h2.67c1.5 0 2.79.38 3.71 1.3.92.92 1.3 2.22 1.3 3.7v2.67c0 1.5-.38 2.79-1.3 3.71-.92.92-2.22 1.3-3.7 1.3H6.66c-1.49 0-2.79-.38-3.71-1.3-.92-.92-1.3-2.22-1.3-3.7v-2.67c0-1.5.38-2.79 1.3-3.71Zm1.41 1.41c-.4.42-.7 1.12-.7 2.3v2.66c0 1.18.3 1.88.7 2.3.42.4 1.12.7 2.3.7h2.66c1.18 0 1.88-.3 2.3-.7.4-.42.7-1.12.7-2.3v-2.66c0-1.18-.29-1.88-.7-2.3-.42-.4-1.12-.7-2.3-.7H6.67c-1.18 0-1.88.3-2.3.7ZM8 3.67a4.33 4.33 0 1 0 0 8.66 4.33 4.33 0 0 0 0-8.66ZM1.67 8a6.33 6.33 0 1 1 12.66 0A6.33 6.33 0 0 1 1.67 8ZM24 19.67a4.33 4.33 0 1 0 0 8.66 4.33 4.33 0 0 0 0-8.66ZM17.67 24a6.33 6.33 0 1 1 12.66 0 6.33 6.33 0 0 1-12.66 0Z" clip-rule="evenodd"/></svg>