<svg xmlns="http://www.w3.org/2000/svg" width="32" height="32" fill="none"><path fill="#A4A4A4" fill-rule="evenodd" d="M8.35 11.33c-2.21 0-4.02 1.8-4.02 4.02v4.1a6.33 6.33 0 0 1 7.9 8.89h11.42c2.21 0 4.02-1.81 4.02-4.02v-.59h-1.54c-1.88 0-3.7-1.37-3.87-3.4a3.68 3.68 0 0 1 1.09-2.97c.68-.7 1.61-1.1 2.62-1.1h1.7v-.91c0-2.21-1.8-4.02-4.02-4.02H8.35Zm-6.02 4.02c0-3.32 2.7-6.02 6.02-6.02h15.3c3.32 0 6.02 2.7 6.02 6.02v1.92a1 1 0 0 1-1 1h-2.7c-.48 0-.9.18-1.2.5l-.02.01c-.35.35-.55.84-.5 1.37.07.85.88 1.58 1.88 1.58h2.54a1 1 0 0 1 1 1v1.59c0 3.31-2.7 6.01-6.02 6.01H10.17a1 1 0 0 1-.64-1.76c.32-.27.61-.61.83-1l.02-.01a4.33 4.33 0 0 0-6.42-5.6 1 1 0 0 1-1.63-.79v-5.82Z" clip-rule="evenodd"/><path fill="#A4A4A4" fill-rule="evenodd" d="M18.8 5.27a1.53 1.53 0 0 0-2.07-1.44l-10.59 4a2.8 2.8 0 0 0-1.8 2.62v6.1a1 1 0 1 1-2 0v-6.1c0-2 1.22-3.78 3.1-4.5l10.58-4a3.53 3.53 0 0 1 4.78 3.32v5.06a1 1 0 1 1-2 0V5.27ZM25.97 18.27c-.48 0-.9.18-1.2.5l-.02.01c-.35.35-.55.84-.5 1.37.07.85.88 1.58 1.88 1.58h2.6a.37.37 0 0 0 .35-.36v-2.74a.37.37 0 0 0-.36-.36h-2.75Zm-2.63-.91c.69-.7 1.62-1.1 2.63-1.1h2.81a2.37 2.37 0 0 1 2.3 2.37v2.74a2.37 2.37 0 0 1-2.34 2.36h-2.6c-1.89 0-3.71-1.37-3.88-3.4a3.68 3.68 0 0 1 1.08-2.97Z" clip-rule="evenodd"/><path fill="#A4A4A4" fill-rule="evenodd" d="M8.33 16a1 1 0 0 1 1-1h9.34a1 1 0 1 1 0 2H9.33a1 1 0 0 1-1-1ZM6.67 21c-1.02 0-1.96.36-2.71.96a4.3 4.3 0 0 0-1 5.6 4.3 4.3 0 0 0 7.4.02l.02-.02A4.33 4.33 0 0 0 6.68 21Zm-3.96-.6a6.34 6.34 0 1 1 7.92 9.88 6.34 6.34 0 0 1-7.92-9.89Z" clip-rule="evenodd"/><path fill="#A4A4A4" fill-rule="evenodd" d="M9.48 23.35a1 1 0 0 1-.05 1.41l-2.84 2.63a1 1 0 0 1-1.39-.03l-1.32-1.32a1 1 0 1 1 1.42-1.41l.63.64 2.14-1.98a1 1 0 0 1 1.41.06Z" clip-rule="evenodd"/></svg>