<svg xmlns="http://www.w3.org/2000/svg" width="172" height="57" fill="none"><rect width="171" height="57" fill="#0C0D10" rx="7"/><path fill="#fff" d="M116.2 27.4v3.2h-2v2.2h2V40c0 2.5 1.1 3.5 4 3.5l1.3-.1v-2.1h-1c-1.2 0-1.8-.6-1.8-2v-6.5h2.8v-2.2h-2.8v-3.2h-2.5ZM128.7 43.7c3.8 0 6.1-2.5 6.1-6.7s-2.3-6.7-6-6.7c-3.8 0-6.1 2.5-6.1 6.7s2.3 6.7 6 6.7Zm0-2.3c-2.2 0-3.4-1.6-3.4-4.4 0-2.8 1.2-4.4 3.4-4.4s3.5 1.6 3.5 4.4c0 2.8-1.3 4.4-3.5 4.4ZM136.8 43.4h2.5v-7.6c0-1.8 1.4-3 3.3-3a7 7 0 0 1 1.4.2v-2.5l-1.1-.1c-1.7 0-3.1.9-3.5 2.1h-.2v-2h-2.4v13ZM150.3 32.5c2 0 3.2 1.3 3.2 3.3H147c.2-2 1.5-3.3 3.3-3.3Zm3.2 7.5c-.5 1-1.5 1.5-3 1.5-2.1 0-3.4-1.4-3.5-3.7v-.1h9.1v-.9c0-4-2.2-6.5-5.7-6.5-3.7 0-6 2.6-6 6.7 0 4.2 2.3 6.7 6 6.7 3 0 5-1.4 5.5-3.7h-2.4ZM99.5 38.7c.2 3.2 2.9 5.2 6.8 5.2 4.2 0 6.8-2.1 6.8-5.5 0-2.7-1.5-4.2-5.1-5l-2-.5c-2.3-.5-3.2-1.2-3.2-2.5 0-1.6 1.4-2.6 3.6-2.6 2 0 3.5 1 3.7 2.6h2.7c-.1-3-2.8-5-6.4-5-3.8 0-6.4 2-6.4 5.2 0 2.6 1.5 4.1 4.7 4.9l2.2.5c2.4.6 3.4 1.4 3.4 2.7 0 1.6-1.6 2.7-3.8 2.7-2.4 0-4-1-4.3-2.7h-2.7ZM73.2 30.4c-1.8 0-3.3.8-4 2.3h-.3v-2.1h-2.4v17.1H69v-6.2h.2c.7 1.4 2.2 2.2 4 2.2 3.3 0 5.3-2.6 5.3-6.7 0-4-2-6.6-5.3-6.6Zm-.7 11c-2.2 0-3.5-1.7-3.5-4.4s1.3-4.4 3.5-4.4c2.1 0 3.4 1.7 3.4 4.4s-1.3 4.4-3.4 4.4ZM87.4 30.4c-1.7 0-3.2.8-4 2.3h-.2v-2.1h-2.5v17.1h2.6v-6.2h.2c.7 1.4 2.1 2.2 4 2.2 3.2 0 5.3-2.6 5.3-6.7 0-4-2.1-6.6-5.4-6.6Zm-.7 11c-2.1 0-3.5-1.7-3.5-4.4s1.4-4.4 3.5-4.4c2.2 0 3.5 1.7 3.5 4.4s-1.3 4.4-3.5 4.4ZM62 43.4h2.8l-6.3-17.6h-3l-6.4 17.6H52l1.7-4.6h6.7l1.6 4.6ZM56.7 29h.3l2.5 7.4h-5.3l2.5-7.4ZM50.8 12.4V21H54c2.6 0 4-1.5 4-4.2s-1.5-4.3-4-4.3h-3Zm1.4 1.2h1.6c1.7 0 2.8 1.1 2.8 3 0 2-1 3.1-2.8 3.1h-1.6v-6ZM62.4 21c2 0 3-1.2 3-3.3 0-2-1-3.3-3-3.3-1.8 0-3 1.2-3 3.3 0 2.1 1.1 3.4 3 3.4Zm0-1c-1 0-1.7-.9-1.7-2.3s.6-2.2 1.7-2.2 1.8.8 1.8 2.2c0 1.4-.7 2.2-1.8 2.2ZM75.3 14.5H74l-1.1 5h-.1l-1.4-5h-1.2l-1.3 5-1.2-5h-1.3L68 21h1.3l1.4-4.7 1.4 4.7h1.3l1.8-6.4ZM76.8 21H78v-3.8c0-1 .6-1.7 1.6-1.7s1.4.6 1.4 1.6v3.8h1.2v-4.1c0-1.6-.8-2.4-2.2-2.4-1 0-1.6.4-2 1.1v-1h-1.2V21ZM84.2 21h1.3v-9h-1.3v9ZM90.3 21c1.9 0 3-1.2 3-3.3 0-2-1.1-3.3-3-3.3s-3 1.2-3 3.3c0 2.1 1.1 3.4 3 3.4Zm0-1c-1.1 0-1.7-.9-1.7-2.3s.6-2.2 1.7-2.2c1 0 1.7.8 1.7 2.2 0 1.4-.6 2.2-1.7 2.2ZM97.1 20c-.7 0-1.2-.4-1.2-1 0-.5.4-.8 1.3-.9h1.6v.5c0 .8-.7 1.4-1.7 1.4Zm-.3 1c.8 0 1.5-.3 2-1v1h1.2v-4.5c0-1.3-.9-2.1-2.5-2.1-1.4 0-2.5.7-2.6 1.8H96c.2-.5.6-.7 1.4-.7.8 0 1.3.4 1.3 1v.6l-1.8.1c-1.5.1-2.4.8-2.4 2 0 1.1 1 1.9 2.2 1.9ZM104.4 21c.8 0 1.6-.4 2-1v1h1.3v-9h-1.3v3.5c-.4-.7-1.2-1.1-2-1.1-1.7 0-2.7 1.3-2.7 3.3 0 2 1 3.4 2.7 3.4Zm.3-5.5c1 0 1.7.9 1.7 2.2 0 1.4-.6 2.2-1.7 2.2-1 0-1.7-.8-1.7-2.2 0-1.3.6-2.2 1.7-2.2ZM116 21c1.8 0 3-1.2 3-3.3 0-2-1.2-3.3-3-3.3-2 0-3.1 1.2-3.1 3.3 0 2.1 1.2 3.4 3 3.4Zm0-1c-1.2 0-1.8-.9-1.8-2.3s.6-2.2 1.7-2.2 1.8.8 1.8 2.2c0 1.4-.7 2.2-1.8 2.2ZM120.7 21h1.2v-3.8c0-1 .6-1.7 1.6-1.7s1.4.6 1.4 1.6v3.8h1.2v-4.1c0-1.6-.8-2.4-2.2-2.4-1 0-1.6.4-2 1.1v-1h-1.2V21ZM132 12.9v1.6h-1v1.1h1v3.6c0 1.3.5 1.8 2 1.8h.7v-1.1h-.5c-.7 0-1-.3-1-1v-3.3h1.5v-1h-1.4v-1.7H132ZM136.4 21h1.2v-3.8c0-1 .6-1.6 1.7-1.6.9 0 1.3.5 1.3 1.5v3.8h1.3v-4.1c0-1.5-.8-2.4-2.2-2.4-1 0-1.7.4-2 1.1V12h-1.3v9ZM146.5 15.5c1 0 1.5.6 1.6 1.6h-3.3c0-1 .7-1.6 1.7-1.6Zm1.6 3.7c-.3.5-.8.8-1.6.8-1 0-1.6-.7-1.7-1.9h4.6v-.5c0-2-1.1-3.2-3-3.2-1.7 0-2.9 1.3-2.9 3.3 0 2.1 1.2 3.4 3 3.4 1.5 0 2.5-.7 2.8-1.9H148ZM35.3 29c0-2.5 1.3-4.7 3.4-6a7.3 7.3 0 0 0-5.7-3c-2.4-.3-4.7 1.4-6 1.4-1.2 0-3-1.4-5-1.4-2.7 0-5.2 1.6-6.5 3.9-2.7 4.8-.7 11.8 2 15.6 1.3 2 2.8 4 4.9 4 2-.1 2.7-1.3 5-1.3 2.4 0 3.1 1.3 5.2 1.2 2.1 0 3.4-1.9 4.7-3.8 1-1.3 1.7-2.8 2.2-4.4a6.9 6.9 0 0 1-4.2-6.3ZM31.4 17.4a7 7 0 0 0 1.6-5 7 7 0 0 0-4.6 2.4 6.7 6.7 0 0 0-1.6 4.8 6 6 0 0 0 4.6-2.2Z"/></svg>