<svg xmlns="http://www.w3.org/2000/svg" width="193" height="57" fill="none"><rect width="192.4" height="57" fill="#000" rx="5"/><path fill="#fff" d="M97 31a6 6 0 0 0-6 6 6 6 0 0 0 6 6.1 6 6 0 0 0 6.2-6A6 6 0 0 0 97 31Zm0 9.7c-1.7 0-3.3-1.5-3.3-3.6 0-2.2 1.6-3.7 3.4-3.7 1.8 0 3.4 1.5 3.4 3.7 0 2.1-1.6 3.6-3.4 3.6ZM83.9 31a6 6 0 0 0-6 6 6 6 0 0 0 6 6.1 6 6 0 0 0 6.1-6 6 6 0 0 0-6-6.1Zm0 9.7c-1.8 0-3.4-1.5-3.4-3.6 0-2.2 1.6-3.7 3.4-3.7 1.9 0 3.4 1.5 3.4 3.7 0 2.1-1.5 3.6-3.4 3.6ZM68 33v2.5h6.2a5.4 5.4 0 0 1-1.4 3.3c-1 .9-2.3 1.8-4.8 1.8-3.8 0-6.7-3-6.7-6.8a6.8 6.8 0 0 1 11.4-5l1.8-1.8a9 9 0 0 0-6.5-2.6 9.5 9.5 0 0 0-9.5 9.4c0 5.2 4.3 9.4 9.5 9.4 2.8 0 5-.9 6.6-2.6 1.7-1.7 2.2-4.1 2.2-6l-.1-1.6H68Zm64.6 2c-.5-1.4-2-3.9-5.2-3.9-3.1 0-5.7 2.5-5.7 6a6 6 0 0 0 6 6.1 6 6 0 0 0 5-2.7l-2-1.3c-.7 1-1.6 1.6-3 1.6a3 3 0 0 1-3-1.8l8.2-3.4-.3-.6Zm-8.3 2c0-2.4 1.8-3.6 3.2-3.6 1 0 2 .6 2.3 1.3l-5.5 2.3Zm-6.6 5.9h2.7V24.9h-2.7v17.9Zm-4.3-10.4h-.1A4.2 4.2 0 0 0 110 31a6 6 0 0 0-5.8 6 6 6 0 0 0 5.8 6.1c1.4 0 2.6-.6 3.2-1.4v1c0 2.2-1.2 3.5-3.2 3.5a3.4 3.4 0 0 1-3-2.2l-2.3 1a5.8 5.8 0 0 0 5.3 3.6c3.2 0 5.8-1.9 5.8-6.4V31.4h-2.5v1Zm-3 8.3c-2 0-3.4-1.5-3.4-3.6 0-2.2 1.5-3.7 3.3-3.7 1.8 0 3.3 1.5 3.3 3.7 0 2-1.5 3.6-3.3 3.6ZM145 25h-6.4v17.9h2.7V36h3.7c3 0 5.8-2.1 5.8-5.5s-2.9-5.6-5.8-5.6Zm0 8.6h-3.7v-6h3.7a3 3 0 0 1 3.2 3c0 1.3-1.2 3-3.2 3Zm16.5-2.5c-2 0-4 .8-4.8 2.7l2.4 1c.5-1 1.4-1.3 2.4-1.3 1.4 0 2.8.8 2.8 2.3v.1c-.5-.2-1.5-.6-2.8-.6-2.5 0-5 1.4-5 4 0 2.4 2 3.9 4.3 3.9 1.8 0 2.8-.8 3.4-1.8h.1v1.4h2.6V36c0-3.2-2.4-5-5.4-5Zm-.3 9.7c-1 0-2.1-.4-2.1-1.5 0-1.4 1.5-1.9 2.8-1.9 1.2 0 1.7.3 2.4.6a3.2 3.2 0 0 1-3.1 2.8Zm15-9.3-3 7.7h-.1l-3.2-7.7h-2.8l4.7 10.7-2.7 6h2.8l7.3-16.7h-3Zm-24 11.4h2.7V24.9h-2.6v17.9ZM67.6 14.6c0 1.2-.4 2.1-1 2.9-.9.8-2 1.2-3.2 1.2-1.3 0-2.3-.4-3.2-1.3-.8-.8-1.3-1.9-1.3-3.1 0-1.3.5-2.4 1.3-3.2.9-.9 2-1.3 3.2-1.3.6 0 1.2.1 1.7.3.6.3 1 .6 1.4 1l-.8.8c-.6-.7-1.3-1-2.3-1-1 0-1.7.3-2.4.9-.6.6-1 1.4-1 2.4s.4 1.9 1 2.5c.7.6 1.5 1 2.4 1 1 0 1.7-.4 2.4-1 .4-.4.6-1 .7-1.7h-3.1v-1h4.1v.6ZM74.1 11h-3.9v2.7h3.6v1h-3.6v2.8h4v1h-5V10h5v1ZM78.8 18.5h-1.1V11h-2.4v-1h5.9v1h-2.4v7.5ZM85.4 18.5V10h1.1v8.5h-1ZM91.4 18.5h-1.1V11h-2.4v-1h5.9v1h-2.4v7.5ZM104.9 17.4c-.8.9-1.9 1.3-3.1 1.3a4.4 4.4 0 0 1-4.4-4.5 4.4 4.4 0 0 1 4.4-4.4c1.2 0 2.2.4 3 1.3 1 .9 1.4 2 1.4 3.2 0 1.2-.5 2.3-1.3 3.1Zm-5.5-.7c.7.6 1.4 1 2.4 1 .9 0 1.6-.4 2.3-1 .6-.6 1-1.5 1-2.4 0-1-.4-1.9-1-2.5-.7-.6-1.4-1-2.3-1-1 0-1.7.4-2.4 1-.6.6-1 1.5-1 2.5s.4 1.8 1 2.4ZM107.7 18.5V10h1.3l4.2 6.6V10h1v8.5h-1l-4.4-7v7h-1.1Z"/><path stroke="#fff" stroke-miterlimit="10" stroke-width=".2" d="M67.6 14.6c0 1.2-.4 2.1-1 2.9-.9.8-2 1.2-3.2 1.2-1.3 0-2.3-.4-3.2-1.3-.8-.8-1.3-1.9-1.3-3.1 0-1.3.5-2.4 1.3-3.2.9-.9 2-1.3 3.2-1.3.6 0 1.2.1 1.7.3.6.3 1 .6 1.4 1l-.8.8c-.6-.7-1.3-1-2.3-1-1 0-1.7.3-2.4.9-.6.6-1 1.4-1 2.4s.4 1.9 1 2.5c.7.6 1.5 1 2.4 1 1 0 1.7-.4 2.4-1 .4-.4.6-1 .7-1.7h-3.1v-1h4.1v.6ZM74.1 11h-3.9v2.7h3.6v1h-3.6v2.8h4v1h-5V10h5v1ZM78.8 18.5h-1.1V11h-2.4v-1h5.9v1h-2.4v7.5ZM85.4 18.5V10h1.1v8.5h-1ZM91.4 18.5h-1.1V11h-2.4v-1h5.9v1h-2.4v7.5ZM104.9 17.4c-.8.9-1.9 1.3-3.1 1.3a4.4 4.4 0 0 1-4.4-4.5 4.4 4.4 0 0 1 4.4-4.4c1.2 0 2.2.4 3 1.3 1 .9 1.4 2 1.4 3.2 0 1.2-.5 2.3-1.3 3.1Zm-5.5-.7c.7.6 1.4 1 2.4 1 .9 0 1.6-.4 2.3-1 .6-.6 1-1.5 1-2.4 0-1-.4-1.9-1-2.5-.7-.6-1.4-1-2.3-1-1 0-1.7.4-2.4 1-.6.6-1 1.5-1 2.5s.4 1.8 1 2.4ZM107.7 18.5V10h1.3l4.2 6.6V10h1v8.5h-1l-4.4-7v7h-1.1Z"/><g filter="url(#a)"><path fill="url(#b)" d="M14.9 10.7c-.4.5-.7 1.2-.7 2v31.6c0 .8.3 1.5.7 2l17.7-17.6v-.4L15 10.6l-.1.1Z"/><path fill="url(#c)" d="m38.5 34.6-5.9-5.9v-.4l6-5.9 7 4c2 1.2 2 3 0 4.2l-7 4Z"/><g filter="url(#d)"><path fill="url(#e)" d="m38.6 34.5-6-6L15 46.3c.6.7 1.7.7 3 0l20.7-11.8Z"/></g><path fill="url(#f)" d="M38.6 22.5 17.8 10.7c-1.2-.7-2.3-.7-3 0l17.8 17.8 6-6Z"/></g><defs><linearGradient id="b" x1="31.1" x2="7.2" y1="12.4" y2="36.3" gradientUnits="userSpaceOnUse"><stop stop-color="#00A0FF"/><stop offset="0" stop-color="#00A1FF"/><stop offset=".3" stop-color="#00BEFF"/><stop offset=".5" stop-color="#00D2FF"/><stop offset=".8" stop-color="#00DFFF"/><stop offset="1" stop-color="#00E3FF"/></linearGradient><linearGradient id="c" x1="48.2" x2="13.7" y1="28.5" y2="28.5" gradientUnits="userSpaceOnUse"><stop stop-color="#FFE000"/><stop offset=".4" stop-color="#FFBD00"/><stop offset=".8" stop-color="orange"/><stop offset="1" stop-color="#FF9C00"/></linearGradient><linearGradient id="e" x1="35.4" x2="2.9" y1="31.8" y2="64.2" gradientUnits="userSpaceOnUse"><stop stop-color="#FF3A44"/><stop offset="1" stop-color="#C31162"/></linearGradient><linearGradient id="f" x1="10.4" x2="24.9" y1=".3" y2="14.7" gradientUnits="userSpaceOnUse"><stop stop-color="#32A071"/><stop offset=".1" stop-color="#2DA771"/><stop offset=".5" stop-color="#15CF74"/><stop offset=".8" stop-color="#06E775"/><stop offset="1" stop-color="#00F076"/></linearGradient><filter id="a" width="32.9" height="36.7" x="14.2" y="10.2" color-interpolation-filters="sRGB" filterUnits="userSpaceOnUse"><feFlood flood-opacity="0" result="BackgroundImageFix"/><feBlend in="SourceGraphic" in2="BackgroundImageFix" result="shape"/><feColorMatrix in="SourceAlpha" result="hardAlpha" values="0 0 0 0 0 0 0 0 0 0 0 0 0 0 0 0 0 0 127 0"/><feOffset dy="-.1"/><feComposite in2="hardAlpha" k2="-1" k3="1" operator="arithmetic"/><feColorMatrix values="0 0 0 0 0 0 0 0 0 0 0 0 0 0 0 0 0 0 0.12 0"/><feBlend in2="shape" result="effect1_innerShadow_2_299"/><feColorMatrix in="SourceAlpha" result="hardAlpha" values="0 0 0 0 0 0 0 0 0 0 0 0 0 0 0 0 0 0 127 0"/><feOffset dy=".1"/><feComposite in2="hardAlpha" k2="-1" k3="1" operator="arithmetic"/><feColorMatrix values="0 0 0 0 1 0 0 0 0 1 0 0 0 0 1 0 0 0 0.25 0"/><feBlend in2="effect1_innerShadow_2_299" result="effect2_innerShadow_2_299"/></filter><filter id="d" width="23.8" height="18.3" x="14.9" y="28.5" color-interpolation-filters="sRGB" filterUnits="userSpaceOnUse"><feFlood flood-opacity="0" result="BackgroundImageFix"/><feBlend in="SourceGraphic" in2="BackgroundImageFix" result="shape"/><feColorMatrix in="SourceAlpha" result="hardAlpha" values="0 0 0 0 0 0 0 0 0 0 0 0 0 0 0 0 0 0 127 0"/><feOffset dy="-.1"/><feComposite in2="hardAlpha" k2="-1" k3="1" operator="arithmetic"/><feColorMatrix values="0 0 0 0 0 0 0 0 0 0 0 0 0 0 0 0 0 0 0.08 0"/><feBlend in2="shape" result="effect1_innerShadow_2_299"/></filter></defs></svg>