<svg xmlns="http://www.w3.org/2000/svg" width="101" height="59" fill="none"><g clip-path="url(#a)" opacity=".4"><path fill="#fff" d="M100.6 55.5h-.3c-2.3 1.2-3.6 1-4.8-1.3-1.2-2.2-1.8-4.7-2.6-7-.1-.3 0-.8.2-1 2.3-4 3.5-8.5 4.4-13 .8-3.8 1.4-7.6.8-11.5-.2-1-.3-2.5-1.5-2.6-1-.1-2.1.5-3 1-.6.4-1 1.1-1.5 1.8L90.8 25c-2.5 7-2.6 14.3-1.4 21.6.3 1.5-.6 2-1.4 2.6-.8.6-1.8.8-2.8.1-1.5-1-2.6-5.5-2-7.3 1.2-3.1 2.4-6.2 3.3-9.4.8-2.4 1-4.9.4-7.4-.3-1.1-.8-2.1-2.1-2.3-1.3-.3-2.4.2-3 1.3-.7 1-1.2 2.2-1.5 3.4a45.4 45.4 0 0 0-.6 16.2c.2 1.5-.4 2.5-1.3 3.4-.7.7-1.5.6-1.9-.3-.4-1-.9-2.2-.9-3.3.1-3.2.4-6.5.7-9.7 0-1.5.3-3 .4-4.5 0-1-.6-1.3-1.5-1.3-1.3 0-2 .7-2.2 2-.4 3-.7 6-1.3 9a38 38 0 0 1-1.9 6c-.2.6-1 1.2-1.7 1.1-.4 0-1-.9-1-1.5-.2-1.5-.3-3.2-.1-4.7.3-2.9.9-5.6 1.3-8.5.2-1.3-.8-2.3-2.1-1.7-.6.2-1.1.9-1.3 1.5-.4 1-.6 2.1-.6 3.2 0 2.4-1.5 4-3.1 5.7-.1-.9-.1-1.6-.3-2.3-.3-2-.6-3.9-1.2-5.7-.6-1.9-1.9-2.5-3.7-2-1.4.4-2.8 1-3.9 2-3.3 2.9-4.9 6.6-5.4 11 0 .4-.4.8-.6 1.2-.5-.3-1.3-.5-1.5-1-.3-.8-.4-1.7-.3-2.6.2-2 .6-4 1-6 .2-.7.3-1.4-.5-1.8-.9-.4-1.5 0-2 .7l-.5 1.2c-.3 1-.4 2-.8 3-.9 2.3-1.8 4.6-2.8 6.7-.3.6-1.5 1.1-2.1 1-1 0-1.2-1.1-1.3-2-.1-3 .8-5.8 2.5-8.2 1.7-2.6 4-4.2 7-4.3.4 0 .7-.2 1-.3v-.3c-.5-.2-.9-.6-1.4-.7-2.3-.6-4.4 0-6.2 1.4a18 18 0 0 0-6.5 12.9c0 .5 0 1.2-.3 1.4-1.1 1-2.3 2-3.5 2.6-1.4.8-2.7.3-3.3-1.2-.4-1.1-.5-2.3-.7-3.4-.2-.9 0-1.4.9-1.9 2.5-1.4 5-3.1 6.7-5.5a7 7 0 0 0 1.4-5.5c-.5-3-3.3-4.5-5.9-2.9-1.3.9-2.5 2.2-3.4 3.6-1.9 2.9-2.7 6.2-3 9.6 0 .5-.2 1-.5 1.3l-3 1.9C15 41.9 12.9 40 11 37.9c-1.9-2-3.7-3.9-5.2-6-1.7-2.4-1.5-5 .1-7.3a6.3 6.3 0 0 1 7.3-2.5c2.3.7 3.8 3 3.7 5.6 0 1.7-1 3-2 4.4l-.3 1.1 1.3.2.6-.1c2.4-1.2 4-3 4.2-5.6a6 6 0 0 0-3-6c-3.1-1.9-6.5-2.1-9.9-1.3-6.5 1.7-9 7.5-5.4 13.1 1.4 2.3 3.3 4.2 5 6.2l6.5 6.5c-1.7 1.3-3.3 2.4-4.8 3.7-1.5 1.3-3 2.8-4.3 4.4-1.7 2.1-1 3.9 1.8 4.3 4.4.6 8.4-.6 11.7-3.6a5 5 0 0 0 1.7-5l-1.5-4.3 2-1.3c.3 1.4.5 2.7 1 4 .8 2.3 2.6 3.7 4.8 3.4 1.3-.2 2.5-1 3.6-1.6.9-.6 1.6-1.5 2.5-2.3 1.5 1.8 3.3 2.3 5 1.4 1-.6 2-1.4 2.7-2.2.9-1 1.5-2.2 2-3.1.6.9 1 2.2 1.8 2.6.8.5 2 0 3.3 0 1.1 1.5 2.1 2 4 1.4a7 7 0 0 0 3-2c1.3-1.6 2.1-3.5 3.1-5.3l.5-1 .3 2.1c.2 1.3 0 2.4-1 3.4a19.8 19.8 0 0 0-3 3.7 27 27 0 0 0-2.6 5.5c-.6 1.9 0 3.3 1.3 4 1.4.9 3.5.8 4.7-.5 1.1-1.1 2-2.5 2.7-4 1.2-3 1.3-6.2 1-9.3-.1-2.2 1.4-3.1 2.4-4.3.4 2.2.6 4.3 1.3 6.4.8 2.5 3.5 3 5.5 1.4.7-.6 1.2-1.4 1.8-2.2l.8-1.7 1.6 4.5c1.1 2.2 3 2.4 4.8.7l1.3-1.4c.9 2 1.5 4.3 3.9 5 2.5.6 4-1.3 5.7-2.8.1.5.2 1 .4 1.3 1 1.9 1.9 3.9 3.1 5.6 1.3 1.7 3.5 2 5.3 1.2 1.3-.6 2-1.6 1.6-2.8Z"/><path fill="#fff" d="m23.4 12.8.2.5 2.8-.7c3.3-1.3 6.6-2 10-2.3 3.3-.2 8 2.5 9.5 5.5-1.7 1.3-3.5 2-5.6 1.5h-1.4c.2.5.3 1 .6 1.3 2 1.8 4.4 2.2 7 1.7 3-.6 6-2 8.8-3.4 1-.5 2-.7 3-1l.2.4c-.2 0-.4.1-.5.3l-.7.8c.4 0 .7.4 1 .4 3-.3 5.5.7 7.7 2.8a18 18 0 0 0 8.4 4.6c.3.1.8-.1 1.1-.2 0-.3-.1-.7-.3-1l-6-7.2a5 5 0 0 0-3.6-1.8l-6.9-.4c-.6 0-1.1-.3-1.7-.5-1-.4-1.9-1-2.8-1-2 0-3.7-.6-5.3-1.8l-2.5-2c-1.9-1.5-4-2.4-6.4-1.6l-.7.1c-5 .8-10.1 1.8-14.7 4.2l-1.2.8Z"/><path fill="#fff" d="M50.7 0a17 17 0 0 0-11 4c-.5.4-1 1-1.3 1.5-.2.2 0 .7 0 1 .3 0 .7 0 1-.2l2.2-1.7c6.6-5 18-4.5 23.4 4.7.7 1.2 1 2.8 1.7 4.1 0 .3.4.5.7.8.1-.3.5-.7.5-1 0-.8-.2-1.5-.5-2.3C65.4 4.3 59 0 50.7 0ZM33 17.4c.3 3.5 1.5 6.6 3 9.5.2.4 1 1 1.4.8 1-.4.3-1 0-1.6-1.2-2.2-2-4.6-2-7 0-2.1.2-4.2.3-6.2 0-.4-.3-.9-.4-1.3-.3.3-.8.5-1 .9l-1.2 4.9ZM68 23c-.5-.2-.8-.5-1-.4-.4 0-.8.3-1 .6a62 62 0 0 0-2 3.7c-.2.3-.2.7-.3 1.1.4 0 1.2.2 1.3 0l3-5Z"/><path fill="#000" d="M100.6 55.5c.3 1.2-.3 2.2-1.6 2.8-1.8.8-4 .5-5.3-1.2-1.2-1.7-2-3.7-3-5.6-.3-.4-.4-.8-.5-1.3-1.8 1.5-3.2 3.4-5.7 2.7-2.4-.6-3-2.8-4-5l-1.2 1.5c-1.8 1.7-3.7 1.5-4.8-.7-.7-1.4-1-3-1.6-4.5l-.8 1.7c-.6.8-1 1.6-1.8 2.2-2 1.7-4.7 1-5.5-1.4-.7-2-.9-4.2-1.3-6.4-1 1.2-2.6 2-2.4 4.3.3 3.1.1 6.3-1 9.3-.6 1.5-1.6 2.9-2.7 4-1.2 1.3-3.3 1.4-4.7.6-1.2-.8-1.9-2.2-1.3-4.1a26.8 26.8 0 0 1 5.5-9.2c1-1 1.3-2 1-3.4 0-.6 0-1.2-.2-2.2l-.5 1.1c-1 1.8-1.8 3.7-3 5.2a7 7 0 0 1-3 2c-2 .8-3 .2-4-1.4-1.3.1-2.6.6-3.5.1-.8-.4-1.1-1.7-1.6-2.6-.6.9-1.2 2-2 3s-1.7 1.7-2.7 2.2c-1.8 1-3.6.5-5.1-1.3-.9.7-1.6 1.7-2.5 2.3-1.1.7-2.4 1.4-3.6 1.6-2.2.3-4-1-4.8-3.5-.5-1.2-.7-2.5-1-3.9l-2 1.3 1.5 4.3a5 5 0 0 1-1.7 5c-3.4 3-7.3 4.2-11.7 3.6-2.7-.4-3.5-2.2-1.8-4.3 1.2-1.6 2.8-3 4.3-4.4 1.5-1.3 3.1-2.4 4.8-3.7-2.2-2.2-4.4-4.3-6.4-6.5-1.8-2-3.7-4-5.1-6.2-3.5-5.6-1-11.4 5.4-13 3.4-1 6.8-.7 9.8 1.2a6 6 0 0 1 3.1 6c-.2 2.7-1.8 4.4-4.2 5.6-.2 0-.4.2-.6.1l-1.3-.2.4-1.1c.9-1.4 2-2.7 2-4.4 0-2.7-1.5-4.9-3.8-5.6-2.8-.9-5.7 0-7.3 2.5-1.6 2.3-1.8 5-.2 7.3a54 54 0 0 0 5.2 6l6.3 6.2 3-1.9c.3-.2.4-.8.5-1.3.3-3.4 1.1-6.7 3-9.6.9-1.4 2-2.7 3.4-3.6 2.6-1.6 5.4 0 6 2.9a7 7 0 0 1-1.5 5.5 20.6 20.6 0 0 1-6.7 5.5c-.8.5-1.1 1-1 1.9.3 1.1.4 2.3.8 3.4.6 1.5 1.9 2 3.3 1.2 1.2-.6 2.4-1.6 3.5-2.6.2-.2.2-1 .3-1.4a18 18 0 0 1 6.5-12.9c1.8-1.4 3.9-2 6.2-1.4.5.1 1 .5 1.4.7v.3c-.3.1-.6.3-1 .3a8.7 8.7 0 0 0-7 4.3 13.2 13.2 0 0 0-2.5 8.1c0 1 .2 2 1.3 2.2.6 0 1.8-.5 2-1.1 1.1-2.1 2-4.4 2.9-6.6.4-1 .5-2 .8-3.1l.5-1.2c.5-.8 1.1-1 2-.7.8.4.7 1 .5 1.8-.4 2-.8 4-1 6-.1.9 0 1.8.3 2.6.2.5 1 .7 1.5 1 .2-.4.6-.8.6-1.2.5-4.4 2.1-8.1 5.4-11 1-1 2.5-1.6 3.9-2 1.8-.5 3 .1 3.7 2 .6 1.8.8 3.8 1.2 5.7l.2 2.3c1.7-1.7 3.2-3.3 3.2-5.7 0-1 .2-2.2.5-3.2.3-.6.8-1.3 1.4-1.5 1.3-.6 2.3.4 2 1.7-.4 2.9-1 5.6-1.2 8.5-.2 1.5-.1 3.2 0 4.7 0 .6.7 1.5 1.1 1.5.6 0 1.5-.5 1.7-1 .8-2 1.5-4 1.9-6.2.6-3 .9-6 1.3-9 .2-1.2.9-1.8 2.2-1.9.9 0 1.5.3 1.5 1.3l-.5 4.5-.6 9.7c0 1 .5 2.2.9 3.3.4 1 1.1 1 1.9.3.9-1 1.5-2 1.3-3.4-.7-5.4-.7-10.9.6-16.2.2-1.2.8-2.4 1.5-3.4.6-1 1.7-1.6 3-1.3 1.2.2 1.8 1.2 2.1 2.3.7 2.5.4 5-.4 7.4-1 3.2-2.1 6.3-3.3 9.4-.7 1.8.5 6.2 2 7.3 1 .7 2 .5 2.8-.1.8-.7 1.7-1.1 1.4-2.6A41.6 41.6 0 0 1 90.8 25l1.5-3c.4-.8.9-1.5 1.5-1.9.9-.5 2-1.1 3-1 1.2.1 1.3 1.5 1.5 2.6.6 3.9 0 7.7-.8 11.5a43 43 0 0 1-4.4 13c-.2.2-.3.7-.2 1 .8 2.3 1.4 4.8 2.6 7 1.2 2.3 2.4 2.5 4.8 1.3h.3Zm-8-12a52.6 52.6 0 0 0 4-22.5c-3.2 2.1-5.7 16.8-4 22.5Zm-35.4-9c-.1-.4-.2-1.4-.6-1.6-.5-.2-1.3.2-1.9.5-.3.1-.6.4-.9.7a15.4 15.4 0 0 0-3.7 9.5c0 .5.4 1.4.9 1.6.4.2 1.3-.2 1.7-.6 2.5-2.8 4-6.1 4.5-10.2ZM14.9 48c-.7.5-1.5 1-2 1.6a63.6 63.6 0 0 0-4 4c-.5.3-.7 1.3-.5 1.6.4.4 1.2.7 1.8.6 1.3-.3 2.7-.7 3.8-1.4 2.3-1.6 2.6-3.9 1-6.4Zm9-8.1c2.6-1.8 4.9-3.3 6-6 .8-1.5.7-3-.2-3.5-1-.5-2.2 0-3.2 1.5a17.8 17.8 0 0 0-2.5 8Zm58.5-1.6.5.1 2-7.8c.3-1.4.4-2.9.3-4.3 0-.5-.5-1-.8-1.6-.4.5-1 .8-1.1 1.3-1.2 4-1 8.2-.9 12.3ZM58.1 46a16.3 16.3 0 0 0-4.4 7.8c-.1.7-.3 1.9.7 2 .6.2 1.3-.6 2-1l.3-.5c1.2-2.5 1.4-5.2 1.4-8.3Z"/><path fill="#000" d="m23.4 12.8 1.2-.8c4.6-2.4 9.6-3.4 14.7-4.2h.7c2.5-1 4.5 0 6.4 1.5l2.5 2a8 8 0 0 0 5.3 1.8c1 0 1.8.6 2.8 1 .6.2 1.1.5 1.7.5l6.9.4a5 5 0 0 1 3.7 1.8l5.9 7.2c.2.3.2.7.3 1-.3 0-.8.3-1.1.2a18 18 0 0 1-8.4-4.6 9.5 9.5 0 0 0-7.7-2.9c-.3 0-.6-.2-1-.4l.7-.7c.1-.2.3-.2.5-.3l-.1-.4c-1 .3-2.2.5-3.1 1a32 32 0 0 1-8.9 3.4c-2.5.5-4.9 0-6.9-1.7-.3-.3-.4-.8-.6-1.2.4 0 1-.2 1.4-.1 2.1.5 4-.2 5.6-1.5-1.6-3-6.2-5.7-9.5-5.5-3.4.2-6.7 1-10 2.3l-2.8.7-.2-.5Z"/><path fill="#000" d="M50.7 0C59 0 65.3 4.3 67.4 11c.3.7.4 1.5.5 2.2 0 .3-.4.7-.5 1-.3-.2-.6-.5-.7-.8-.6-1.3-1-2.8-1.7-4.1C59.7 0 48.2-.3 41.6 4.6l-2.3 1.7c-.2.2-.6.2-.9.2 0-.3-.2-.8 0-1L39.8 4a17 17 0 0 1 10.9-4ZM33 17.4l1.4-5c.1-.3.6-.5 1-.8l.3 1.3c-.1 2-.4 4-.3 6.1 0 2.5.8 5 2 7.1.3.5 1 1.2 0 1.6-.3.1-1.2-.4-1.4-.8a24 24 0 0 1-3-9.5ZM68 23l-3 5c-.1.2-.9 0-1.3 0 0-.4 0-.8.2-1.1a63 63 0 0 1 2-3.7c.3-.3.7-.5 1-.6.3 0 .6.2 1 .4Z"/><path fill="#fff" d="M92.5 43.5c-1.6-5.7 1-20.4 4-22.5.5 8-1.1 15.1-4 22.5ZM57.2 34.4c-.6 4-2 7.4-4.5 10.2-.4.4-1.3.8-1.7.6-.5-.2-.9-1-.9-1.6.2-3.6 1.4-6.8 3.7-9.5.3-.3.6-.6 1-.7.5-.3 1.3-.7 1.8-.5.4.2.5 1.2.6 1.5ZM15 48c1.6 2.6 1.3 5-1 6.5-1.1.7-2.5 1-3.8 1.4-.6.1-1.4-.2-1.8-.6-.2-.3 0-1.3.4-1.7l4-4 2.1-1.5ZM24 40c.4-3 1-5.7 2.5-8 1-1.4 2.3-2 3.2-1.5.9.5 1 2 .3 3.6-1.2 2.6-3.5 4.1-6 5.9ZM82.4 38.4c0-4.1-.3-8.2.9-12.3.1-.5.7-.8 1-1.3.4.6 1 1 1 1.6 0 1.4 0 3-.4 4.3l-2 7.8h-.5ZM58.1 46c0 3.1-.2 5.8-1.4 8.3 0 .2-.2.4-.3.5-.7.4-1.4 1.2-2 1-1-.1-.8-1.3-.7-2 .7-2.9 2.1-5.4 4.4-7.8Z"/></g><defs><clipPath id="a"><path fill="#fff" d="M.7 0h100v59H.7z"/></clipPath></defs></svg>